<svg width="140" height="140" viewBox="0 0 140 140" fill="none" xmlns="http://www.w3.org/2000/svg">
<g opacity="0.7">
<g opacity="0.7">
<path opacity="0.7" d="M53.7612 93.5624H40.9732V68.578C40.9732 65.5312 41.1761 62.8905 41.1761 60.2499C40.3642 61.2655 39.3493 62.2812 38.3344 63.2968L33.0567 67.7655L26.5612 59.6405L42.597 46.4374H53.9642L53.7612 93.5624Z" fill="white"/>
</g>
<g opacity="0.7">
<path opacity="0.7" d="M81.3673 45.8282C86.2389 45.8282 90.0956 46.8438 92.9374 48.8751C95.7792 50.9063 96.9971 53.7501 96.9971 57.4063C96.9971 59.8438 96.3882 62.0782 94.9673 64.1095C93.7493 65.9376 91.7195 67.7657 88.8777 68.9845C92.3285 71.0157 94.7643 73.047 96.1852 74.8751C97.6061 76.9063 98.215 78.9376 98.215 81.172C98.215 85.4376 96.7941 88.6876 93.7494 90.922C90.7046 93.1563 86.6449 94.3751 81.1643 94.3751C75.6837 94.3751 71.421 93.1563 68.5792 90.922C65.7374 88.6876 64.3165 85.4376 64.3165 81.3751C64.3165 78.7345 64.9255 76.297 66.3464 74.2657C67.7673 72.4376 69.7971 70.6095 72.8419 68.9845C70.4061 67.3595 68.5792 65.5313 67.3613 63.5001C66.1434 61.672 65.7374 59.4376 65.7374 57.2032C65.7374 53.547 67.1583 50.9063 69.7971 48.8751C72.4359 46.6407 76.2926 45.8282 81.3673 45.8282ZM75.6837 80.7657C75.6837 82.1876 77.0509 85.2703 80.9613 85.2345C84.8717 85.1986 86.6852 82.8814 86.6449 80.9688C86.6045 79.0563 85.5434 78.1125 84.4352 76.9707C83.3269 75.8288 82.9239 75.5266 81.1643 74.4688C79.3374 75.4845 78.8173 75.8701 77.7521 76.9707C76.6868 78.0712 75.6837 79.547 75.6837 80.7657ZM81.1643 54.9688C80.1089 54.9864 78.9704 55.3923 78.367 55.9725C77.7636 56.5527 77.3076 57.4063 77.3076 58.422C77.3076 60.2501 78.5255 61.8751 80.9613 63.297C82.5852 62.4845 83.3971 61.672 84.0061 60.8595C84.615 60.047 84.818 59.2345 84.818 58.422C84.818 57.4063 84.5985 56.7384 83.9191 55.9845C83.2397 55.2306 82.2196 54.9513 81.1643 54.9688Z" fill="white"/>
</g>
</g>
<g opacity="0.7">
<g opacity="0.7">
<path opacity="0.7" d="M118.311 74.2655H106.943V65.9374H118.311V54.5624H126.43V65.9374H138V74.2655H126.633V85.4374H118.514V74.2655H118.311Z" fill="white"/>
</g>
</g>
<g opacity="0.7">
<path opacity="0.7" d="M116.484 97.8281C106.74 115.703 88.0657 127.688 66.3463 127.688C34.8836 127.688 9.30746 101.688 9.30746 70C9.30746 38.3125 34.8836 12.3125 66.3463 12.3125C87.8627 12.3125 106.74 24.2969 116.484 42.1719H124.603C114.251 20.2344 92.1254 5 66.3463 5C30.8239 5 2 34.0469 2 70C2 105.953 30.8239 135 66.3463 135C91.9224 135 114.251 119.766 124.603 97.8281H116.484Z" fill="#FF0000"/>
</g>
</svg>
