<svg width="160" height="40" viewBox="0 0 160 40" fill="none" xmlns="http://www.w3.org/2000/svg">
<path d="M2.85257 17.8557C2.98025 8.69131 15.6769 1.42298 31.2261 1.59829C38.7202 1.50668 46.0771 3.59634 52.3818 7.60729C47.307 3.19224 38.6702 0.147836 28.7614 0.00435706C13.0021 -0.202783 0.113132 7.00171 0 16.0865C0 19.7688 1.99761 23.1796 5.47885 25.97C3.80126 23.5868 2.88651 20.7592 2.85257 17.8557Z" fill="url(#paint0_radial)"/>
<path d="M30.0332 18.6846C30.0817 19.0837 30.0331 19.4876 29.8925 19.8641C29.7535 20.2405 29.5258 20.5798 29.2284 20.8529C28.4801 21.3102 27.6073 21.5218 26.7313 21.4588H14.5018C14.4986 22.0437 14.6715 22.6173 14.9947 23.1069C15.318 23.5965 15.7802 23.9826 16.3216 24.2153C17.4448 24.7533 18.6828 25.0167 19.9304 24.9812C21.3058 24.8907 22.6489 24.5271 23.8788 23.9132C24.8178 23.4365 25.8215 23.0988 26.8591 22.9098C27.2292 22.9017 27.5977 22.9696 27.9403 23.1069C28.2845 23.2426 28.5948 23.4478 28.8566 23.7063C29.1233 23.9503 29.335 24.246 29.4788 24.5756C29.6227 24.9052 29.6971 25.2607 29.6955 25.6194C29.6955 27.3289 28.3039 28.6635 25.5224 29.62C23.4489 30.3326 21.2719 30.6977 19.0772 30.7026C17.5014 30.7769 15.9289 30.5313 14.4517 29.9835C12.9745 29.4358 11.6266 28.5956 10.4888 27.5147C9.41566 26.445 8.57686 25.1686 8.02252 23.7661C7.46817 22.362 7.21117 20.861 7.26612 19.3551C7.25157 17.8654 7.54737 16.3886 8.13566 15.0184C8.72233 13.6466 9.5902 12.4106 10.6827 11.3846C11.7704 10.2896 13.0698 9.42289 14.5034 8.83669C15.9385 8.25066 17.4771 7.95707 19.0287 7.97387C20.4881 7.94237 21.9377 8.20913 23.2889 8.75768C24.6384 9.30623 25.8603 10.1248 26.8752 11.1618C27.8902 12.1391 28.6934 13.3089 29.2365 14.6032C29.7795 15.8958 30.051 17.2853 30.0332 18.6846ZM23.2017 17.0914C23.1677 16.5825 23.0238 16.088 22.7782 15.6389C22.5341 15.1913 22.1948 14.8003 21.7843 14.4933C20.9826 13.7436 19.9224 13.3267 18.8185 13.3267C17.7163 13.3267 16.6561 13.7436 15.8545 14.4933C15.4424 14.8019 15.1063 15.1994 14.8719 15.6534C14.6376 16.1091 14.5115 16.6115 14.5018 17.1237L23.2017 17.0914Z" fill="white"/>
<path d="M50.1256 26.3998C50.1256 27.8184 49.1268 28.9349 47.1292 29.7638C45.5324 30.4247 43.816 30.7607 42.085 30.751C40.5303 30.8076 38.9804 30.5329 37.5404 29.948C36.1004 29.3615 34.8041 28.4793 33.7391 27.3563C31.6801 25.2106 30.5681 22.3443 30.6457 19.3874C30.6199 17.9009 30.8914 16.4258 31.4441 15.0443C31.9969 13.6628 32.8211 12.4025 33.8684 11.3377C34.9205 10.2358 36.1974 9.36669 37.6131 8.78712C39.0289 8.20755 40.5529 7.93061 42.085 7.9744C43.8176 7.93465 45.5421 8.20464 47.1776 8.77128C49.1526 9.49385 50.1418 10.615 50.1418 12.1343C50.1483 12.8889 49.867 13.6176 49.3515 14.175C49.1058 14.4578 48.7971 14.6824 48.4528 14.8342C48.1069 14.9861 47.732 15.0605 47.3538 15.0508C46.5393 14.9958 45.7361 14.8229 44.97 14.5418C44.1764 14.259 43.3457 14.0926 42.5037 14.0474C41.7942 14.0102 41.0863 14.1346 40.4318 14.4109C39.7788 14.6872 39.1986 15.1089 38.7347 15.6405C37.8668 16.6778 37.4192 17.9947 37.4774 19.339C37.4354 20.6364 37.8313 21.9096 38.6055 22.9566C38.9998 23.5092 39.5283 23.9536 40.1425 24.2525C40.755 24.5498 41.4354 24.692 42.1174 24.6629C43.0467 24.6128 43.9647 24.4302 44.8407 24.1216C45.6504 23.8308 46.4956 23.6482 47.3538 23.5787C47.7239 23.5787 48.0892 23.6563 48.4254 23.8081C48.7616 23.9584 49.0622 24.1798 49.3046 24.4561C49.8266 24.9699 50.1224 25.6695 50.1256 26.3998Z" fill="white"/>
<path d="M72.4093 19.3697C72.4869 22.3281 71.3734 25.1945 69.316 27.3402C68.2477 28.4632 66.9483 29.347 65.5067 29.9335C64.0634 30.5184 62.512 30.7915 60.954 30.7349C59.3976 30.7915 57.8477 30.5168 56.4093 29.9319C54.9693 29.3454 53.6731 28.4615 52.6064 27.3402C50.5539 25.1913 49.4484 22.3249 49.5292 19.3697C49.4484 16.4161 50.5539 13.5497 52.6064 11.4008C53.6763 10.2801 54.9709 9.39548 56.4093 8.80492C57.8477 8.21436 59.396 7.93111 60.954 7.97377C62.5055 7.9253 64.0505 8.20273 65.4857 8.78796C66.9224 9.37318 68.2171 10.2528 69.2837 11.3685C70.3116 12.4333 71.118 13.6871 71.6546 15.0605C72.1912 16.4339 72.4481 17.8977 72.4093 19.3697ZM65.5778 19.3697C65.6182 18.0739 65.2222 16.8006 64.4497 15.752C64.0311 15.2334 63.501 14.8149 62.8966 14.5273C62.2937 14.2397 61.6311 14.091 60.962 14.091C60.2913 14.091 59.6303 14.2397 59.0258 14.5273C58.4214 14.8149 57.8913 15.2334 57.4727 15.752C56.6985 16.799 56.301 18.0739 56.3446 19.3697C56.309 20.6768 56.705 21.9581 57.4727 23.0197C57.8896 23.5416 58.4198 23.9617 59.0242 24.2509C59.6271 24.5401 60.2897 24.6904 60.962 24.6904C61.6327 24.6904 62.2954 24.5401 62.8998 24.2509C63.5027 23.9617 64.0327 23.5416 64.4497 23.0197C65.2174 21.9565 65.6117 20.6752 65.5778 19.3697Z" fill="white"/>
<path d="M74.6171 27.2433V4.78554C74.601 4.37578 74.672 3.96716 74.8256 3.58584C74.9775 3.20452 75.2086 2.85859 75.5028 2.57001C75.8405 2.26948 76.2349 2.0386 76.6648 1.89092C77.0931 1.74307 77.5473 1.68135 77.9998 1.7093L85.7186 1.59765C88.6099 1.52333 91.4317 2.47307 93.6782 4.27545C94.7158 5.10659 95.5464 6.16297 96.104 7.36251C96.6632 8.56205 96.9363 9.87274 96.9008 11.1931C96.9476 12.5156 96.681 13.8309 96.1218 15.0314C95.5626 16.2335 94.7255 17.2886 93.6782 18.111C91.5028 19.8528 88.7748 20.7786 85.9756 20.7253H81.1416V27.2594C81.1723 27.6892 81.1028 28.1206 80.9411 28.5213C80.7795 28.9204 80.529 29.2807 80.2074 29.5716C79.5432 30.087 78.7238 30.3665 77.8801 30.3665C77.0349 30.3665 76.2155 30.087 75.5513 29.5716C75.2329 29.284 74.984 28.9301 74.8224 28.5359C74.6608 28.1416 74.5913 27.7167 74.6171 27.2917V27.2433ZM81.1416 15.4014H85.5731C86.1646 15.4385 86.7562 15.3529 87.3105 15.1509C87.8665 14.9473 88.3723 14.6307 88.7958 14.2219C89.2063 13.8244 89.5311 13.3477 89.7477 12.821C89.9626 12.2943 90.0676 11.7288 90.0531 11.1613C90.066 10.6008 89.9642 10.0434 89.7541 9.52277C89.544 9.00234 89.2288 8.52941 88.828 8.13274C88.403 7.72298 87.8972 7.40291 87.3444 7.19189C86.7901 6.98103 86.1986 6.88344 85.6055 6.90542H81.1739L81.1416 15.4014Z" fill="url(#paint1_radial)"/>
<path d="M118.942 12.3411V27.2449C118.958 27.4727 118.958 27.7021 118.942 27.93C118.855 28.5407 118.604 29.1175 118.218 29.6039C117.618 30.0741 116.882 30.339 116.119 30.3584C115.354 30.3794 114.603 30.1532 113.981 29.7154C113.504 29.2226 113.161 28.6199 112.982 27.9623C112.225 28.7976 111.304 29.4698 110.275 29.9383C109.261 30.3859 108.162 30.6153 107.052 30.6073C105.665 30.6299 104.29 30.3568 103.02 29.8058C101.749 29.2565 100.613 28.4421 99.6887 27.4194C98.6851 26.3514 97.9045 25.0975 97.3938 23.729C96.8815 22.3621 96.6487 20.9079 96.7085 19.4505C96.6083 16.5033 97.6912 13.6386 99.7211 11.4799C100.642 10.4617 101.772 9.6501 103.037 9.10026C104.301 8.55042 105.67 8.27493 107.052 8.29254C108.191 8.29093 109.319 8.51309 110.372 8.94611C111.417 9.37073 112.326 10.0708 112.998 10.9703C113.037 10.6267 113.145 10.2941 113.316 9.9928C113.488 9.69146 113.719 9.42761 113.997 9.21707C114.575 8.78841 115.288 8.57416 116.01 8.61132C116.419 8.55962 116.835 8.60341 117.224 8.73897C117.612 8.87454 117.964 9.09832 118.25 9.39239C118.619 9.91525 118.842 10.5258 118.895 11.1616C118.911 11.3895 118.911 11.6189 118.895 11.8467V12.4042L118.942 12.3411ZM102.831 19.5296V19.9126C102.814 20.0386 102.814 20.1679 102.831 20.2955C102.948 21.5574 103.424 22.7611 104.199 23.7694C104.613 24.3042 105.151 24.7275 105.77 25.007C106.389 25.285 107.066 25.4078 107.745 25.3641C108.406 25.4013 109.066 25.2753 109.665 24.9974C110.265 24.7178 110.784 24.2961 111.176 23.7694C111.942 22.7563 112.41 21.5542 112.531 20.2955C112.544 20.1679 112.544 20.0402 112.531 19.9126V19.5781C112.531 19.4343 112.531 19.3067 112.531 19.1467C112.531 18.9884 112.531 18.8446 112.531 18.6846C112.4 17.4372 111.933 16.248 111.176 15.2414C110.79 14.7211 110.278 14.3027 109.688 14.0248C109.096 13.7468 108.447 13.6176 107.794 13.6483C107.123 13.6127 106.454 13.7388 105.845 14.0167C105.235 14.2946 104.705 14.7147 104.296 15.2414C103.514 16.2335 103.024 17.4195 102.879 18.6684C102.879 18.8284 102.879 18.9884 102.879 19.1305C102.879 19.2743 102.879 19.4182 102.879 19.562L102.831 19.5296Z" fill="url(#paint2_radial)"/>
<path d="M119.862 12.5334C119.771 12.3298 119.705 12.1149 119.668 11.8952C119.645 11.6302 119.645 11.3636 119.668 11.0983C119.655 10.7997 119.708 10.5019 119.826 10.2263C119.943 9.95079 120.12 9.70422 120.345 9.50435C120.796 9.07892 121.352 8.77677 121.956 8.6278H122.294H122.456C123.141 8.60744 123.817 8.79665 124.389 9.16973C124.932 9.53715 125.347 10.0598 125.581 10.668L129.884 21.4588L134.507 10.6202C134.75 10.0296 135.165 9.52439 135.7 9.16973C136.272 8.79665 136.948 8.60744 137.633 8.6278H137.971H138.326C138.928 8.78388 139.482 9.08506 139.938 9.50435C140.166 9.70196 140.347 9.94771 140.466 10.2235C140.588 10.4993 140.642 10.7984 140.629 11.0983C140.654 11.3636 140.654 11.6302 140.629 11.8952C140.586 12.1343 140.503 12.3654 140.389 12.5803L129.916 36.4902C129.659 37.0897 129.281 37.6326 128.804 38.0834C128.557 38.3128 128.264 38.4921 127.947 38.6101C127.629 38.728 127.29 38.7814 126.95 38.7684C126.068 38.8331 125.193 38.5535 124.518 37.988C124.267 37.7764 124.064 37.5162 123.923 37.2222C123.781 36.9281 123.703 36.6082 123.695 36.2818C123.69 36.1913 123.69 36.1008 123.695 36.012C123.695 35.9005 123.695 35.8035 123.695 35.7405C123.729 35.5499 123.783 35.3624 123.857 35.1831L124.051 34.624L126.79 28.392L119.862 12.5334Z" fill="url(#paint3_radial)"/>
<path d="M140.516 26.6067L150.344 13.8551H143.078C142.357 13.902 141.645 13.6806 141.081 13.2347C140.798 13.0214 140.568 12.7467 140.411 12.43C140.256 12.1149 140.175 11.7676 140.177 11.4169C140.169 11.06 140.247 10.7062 140.403 10.3846C140.56 10.0631 140.793 9.78309 141.081 9.56803C141.646 9.11901 142.352 8.88182 143.078 8.89846H157.289H157.708L158.207 9.01011C158.511 9.12564 158.782 9.31144 158.997 9.55203C159.249 9.86193 159.377 10.2542 159.351 10.6519C159.379 10.8582 159.379 11.0671 159.351 11.2735C159.316 11.446 159.267 11.6173 159.206 11.7837L159.013 12.0552L158.771 12.3735L148.895 25.0442H157.16C157.887 25.0491 158.592 25.2963 159.159 25.7471C159.434 25.9684 159.653 26.2512 159.799 26.5727C159.946 26.8926 160.012 27.2433 159.996 27.5955C160.017 27.9477 159.952 28.3 159.807 28.6215C159.662 28.943 159.439 29.2258 159.159 29.4439C158.588 29.8802 157.881 30.1064 157.16 30.0821H142.66C142.026 30.0967 141.401 29.9367 140.854 29.62C140.605 29.4665 140.403 29.2484 140.269 28.9899C140.137 28.7314 140.077 28.4422 140.098 28.1529C140.096 27.9203 140.133 27.6876 140.209 27.4679C140.276 27.2756 140.356 27.0898 140.452 26.9104C140.504 26.8652 140.547 26.8102 140.581 26.7505L140.678 26.5905L140.516 26.6067Z" fill="url(#paint4_radial)"/>
<defs>
<radialGradient id="paint0_radial" cx="0" cy="0" r="1" gradientUnits="userSpaceOnUse" gradientTransform="translate(19.7868 8.54783) scale(36.253 35.8633)">
<stop stop-color="#81C241"/>
<stop offset="1" stop-color="#8BC53F"/>
</radialGradient>
<radialGradient id="paint1_radial" cx="0" cy="0" r="1" gradientUnits="userSpaceOnUse" gradientTransform="translate(1260.88 417.371) scale(178.799 230.764)">
<stop stop-color="#81C241"/>
<stop offset="1" stop-color="#8BC53F"/>
</radialGradient>
<radialGradient id="paint2_radial" cx="0" cy="0" r="1" gradientUnits="userSpaceOnUse" gradientTransform="translate(1585.57 282.121) scale(154.672 155.103)">
<stop stop-color="#81C241"/>
<stop offset="1" stop-color="#8BC53F"/>
</radialGradient>
<radialGradient id="paint3_radial" cx="0" cy="0" r="1" gradientUnits="userSpaceOnUse" gradientTransform="translate(1815.36 298.383) scale(170.914 245.435)">
<stop stop-color="#81C241"/>
<stop offset="1" stop-color="#8BC53F"/>
</radialGradient>
<radialGradient id="paint4_radial" cx="0" cy="0" r="1" gradientUnits="userSpaceOnUse" gradientTransform="translate(1992.44 268.847) scale(128.201 136.437)">
<stop stop-color="#81C241"/>
<stop offset="1" stop-color="#8BC53F"/>
</radialGradient>
</defs>
</svg>
