<?xml version="1.0" encoding="utf-8"?>
<!-- Generator: Adobe Illustrator 22.0.1, SVG Export Plug-In . SVG Version: 6.00 Build 0)  -->
<svg version="1.1" id="Слой_1" xmlns="http://www.w3.org/2000/svg" xmlns:xlink="http://www.w3.org/1999/xlink" x="0px" y="0px"
	 viewBox="0 0 138.7 130" style="enable-background:new 0 0 138.7 130;" xml:space="preserve">
<style type="text/css">
	.st0{fill:#6B6B6B;}
</style>
<g>
	<path class="st0" d="M56.7,30.9c0.1-1.3,0.3-2.6,0.4-3.9c0.1-1.3,0.2-2.6,0.3-3.9c0.1-0.5,0.1-1.1,0.9-1.1c6.3,0,12.7,0,19.3,0
		c0,0.8,0,1.5,0,2.3c-0.2,6-0.4,12-0.5,18c-0.1,15.1,0,30.2-0.1,45.3c0,7.1-0.8,14.2-3.3,20.9c-3.9,10.3-11.5,16.3-21.9,19.1
		c-6.6,1.8-13.3,2.3-20.1,2c-6.7-0.3-13.2-1.3-19.5-3.7c-1.2-0.5-2.4-1-3.6-1.6c-0.3-0.3-0.6-1-0.5-1.3c1.4-5.5,2.8-10.9,4.3-16.4
		c0-0.1,0.1-0.1,0,0c3.4,1.2,6.6,2.6,10,3.6c4.8,1.5,9.8,2.1,14.9,1.6c8.8-0.9,15.2-5.9,16.5-15.5c0.4-2.8,0.3-5.7,0.4-8.6
		c0-0.3-0.1-0.6-0.2-1.2c-0.5,0.6-0.9,1-1.2,1.4c-4.2,5.1-9.6,7.8-16.1,8.5c-17.2,1.8-29.6-9-33.6-23.6C-0.2,60.2,0.7,48,7.3,36.7
		c5-8.7,12.6-14.1,22.5-15.9c4.7-0.9,9.4-0.7,14,0.6c4.9,1.4,8.7,4.2,11.7,8.3c0.3,0.4,0.6,0.8,0.9,1.2
		C56.5,30.9,56.6,30.9,56.7,30.9z M53.6,58.5c0.1,0,0.2,0,0.2,0c0-2.3,0.1-4.6,0-6.8c-0.1-1.5-0.3-3-0.7-4.5
		c-2.2-7-8.4-10.6-15.4-9.1c-5.2,1.1-8.5,4.7-10.5,9.4c-2,4.8-2.5,9.8-2,15c0.4,4,1.5,7.7,3.9,11c3.4,4.7,9.2,6.9,14.8,5.5
		c5.2-1.3,9.2-5.7,9.8-11.6C53.8,64.5,53.6,61.5,53.6,58.5z"/>
	<path class="st0" d="M99.4,39c-3.1,0-16.7,0-19.6,0c-0.9,0-1.3-0.2-1.2-1.2c0-4.9,0-9.8,0-14.7c0-0.9,0.3-1.2,1.2-1.2
		c2.9,0.1,16.5,0,19.6,0c0-0.5,0-1,0-1.5c0-4.6,0-9.2,0-13.8c0-0.6,0-1.1,0.8-1.3c7-1.6,14-3.2,21.1-4.8c0.3-0.1,0.5-0.1,1-0.1
		c0,7.1,0,14.2,0,21.4c5.6,0,11.1,0,16.7,0c0,5.7,0,11.3,0,17.1c-5.5,0-11,0-16.6,0c0,0.5-0.1,0.9-0.1,1.3c0,9.4-0.1,18.8,0.1,28.2
		c0,2.2,0.5,4.4,1.1,6.4c1,3.2,3.6,4.7,6.9,4.8c2.6,0.1,5.2-0.1,8-0.2c0,0.2,0.1,0.4,0.1,0.7c0.1,5.2,0.1,10.4,0.2,15.6
		c0,0.8-0.3,1.2-1,1.3c-2.6,0.5-5.1,1.1-7.8,1.3c-4.2,0.4-8.4,0.5-12.6-0.4c-9-1.8-14.8-7.4-16.6-16.5c-0.7-3.9-1.1-7.8-1.2-11.7
		c-0.2-9.7-0.1-19.4-0.1-29.1C99.4,40.1,99.4,39.7,99.4,39z"/>
</g>
</svg>
