<svg width="160" height="74" viewBox="0 0 160 74" fill="none" xmlns="http://www.w3.org/2000/svg">
<path d="M156.275 0.696777H3.77502C2.986 0.696777 2.2293 1.00905 1.67138 1.56491C1.11346 2.12076 0.800018 2.87466 0.800018 3.66076V70.2882C0.806612 71.0699 1.12296 71.8174 1.68016 72.3679C2.23737 72.9184 2.99031 73.2273 3.77502 73.2272H156.275C157.064 73.2272 157.821 72.915 158.379 72.3591C158.937 71.8033 159.25 71.0494 159.25 70.2633V3.63585C159.243 2.85408 158.927 2.10656 158.37 1.55608C157.813 1.0056 157.06 0.69675 156.275 0.696777Z" fill="#1F3E60"/>
<path d="M105.775 19.104C105.62 18.5804 105.284 18.1283 104.826 17.8275C104.369 17.5267 103.819 17.3966 103.275 17.4601H98.575C98.0307 17.3966 97.4813 17.5267 97.0239 17.8275C96.5665 18.1283 96.2304 18.5804 96.075 19.104C95.625 20.0505 82.65 55.0454 82.65 55.0454C82.65 55.0454 81.9 56.5648 83.85 56.5648H87.15C87.6866 56.6479 88.2353 56.5348 88.6948 56.2464C89.1542 55.958 89.4935 55.5137 89.65 54.9956C90.1 53.8001 92 48.445 92 48.445H110.15C110.15 48.445 112.1 53.8001 112.5 54.9956C112.656 55.5137 112.996 55.958 113.455 56.2464C113.915 56.5348 114.463 56.6479 115 56.5648H118.3C120.25 56.5648 119.5 55.0454 119.5 55.0454C119.5 55.0454 106.275 20.0256 105.775 19.104ZM94.45 42.1434L100.9 23.9859L107.75 42.1434H94.45ZM72.25 17.5597H57.95C56.675 17.5597 56.55 18.556 56.55 19.2036V55.0953C56.5378 55.2946 56.5696 55.4942 56.643 55.6801C56.7164 55.866 56.8297 56.0336 56.975 56.1712C57.1203 56.3088 57.294 56.4132 57.484 56.4768C57.6741 56.5405 57.8758 56.562 58.075 56.5399H61.75C62.0738 56.5346 62.384 56.4092 62.6198 56.188C62.8556 55.9669 63.0001 55.666 63.025 55.3443V42.4174H72.325C75.6402 42.4174 78.8196 41.1053 81.1638 38.7698C83.508 36.4342 84.825 33.2666 84.825 29.9637C84.7988 26.6513 83.4647 23.4824 81.1114 21.1424C78.7581 18.8025 75.5747 17.4797 72.25 17.4601V17.5597ZM72.125 36.34H62.95V23.8862H72.125C73.7826 23.8862 75.3723 24.5423 76.5444 25.71C77.7165 26.8778 78.375 28.4616 78.375 30.1131C78.375 31.7646 77.7165 33.3484 76.5444 34.5161C75.3723 35.6839 73.7826 36.34 72.125 36.34V36.34ZM157.125 0.0996297H2.975C2.58432 0.0996297 2.19746 0.176295 1.83652 0.32525C1.47558 0.474204 1.14761 0.69253 0.871358 0.967761C0.595104 1.24299 0.375967 1.56974 0.22646 1.92935C0.0769518 2.28895 0 2.67438 0 3.06362V71.036C0 71.4252 0.0769518 71.8107 0.22646 72.1703C0.375967 72.5299 0.595104 72.8566 0.871358 73.1319C1.14761 73.4071 1.47558 73.6254 1.83652 73.7744C2.19746 73.9233 2.58432 74 2.975 74H157.025C157.814 74 158.571 73.6877 159.129 73.1319C159.687 72.576 160 71.8221 160 71.036V2.96399C160 2.17789 159.687 1.42399 159.129 0.868132C158.571 0.312277 157.814 0 157.025 0L157.125 0.0996297ZM22.8 22.5163H32.8C34.0911 22.5678 35.3121 23.1153 36.2069 24.044C37.1018 24.9727 37.601 26.2105 37.6 27.4978C37.5739 28.7445 37.0602 29.9317 36.1682 30.8064C35.2762 31.6812 34.0766 32.1742 32.825 32.1804H31.05C30.8558 32.1655 30.6606 32.1926 30.4778 32.2599C30.2951 32.3272 30.1292 32.4331 29.9914 32.5704C29.8536 32.7076 29.7473 32.8729 29.6798 33.055C29.6122 33.2371 29.585 33.4315 29.6 33.625V39.6526C29.591 39.8491 29.6253 40.0451 29.7006 40.2269C29.7759 40.4087 29.8902 40.5718 30.0356 40.7048C30.181 40.8378 30.3539 40.9374 30.5421 40.9966C30.7304 41.0558 30.9293 41.0732 31.125 41.0475H35.425C36.8041 41.0475 38.1268 41.5933 39.102 42.5649C40.0771 43.5364 40.625 44.8542 40.625 46.2282C40.6266 47.5073 40.1343 48.7381 39.25 49.6654C38.3657 50.5928 37.1573 51.1457 35.875 51.2097H24.15C23.9548 51.2291 23.7576 51.2051 23.5729 51.1393C23.3881 51.0736 23.2203 50.9678 23.0815 50.8296C22.9428 50.6913 22.8366 50.5242 22.7706 50.3401C22.7046 50.156 22.6805 49.9596 22.7 49.7651L22.8 22.5163ZM4.225 5.60417C4.21767 5.2532 4.34585 4.91281 4.58311 4.65326C4.82036 4.39371 5.14857 4.23481 5.5 4.20936H13.525V13.4749H4.225V5.60417ZM155.75 68.2713C155.765 68.4746 155.736 68.6788 155.664 68.8698C155.593 69.0609 155.481 69.2344 155.336 69.3786C155.192 69.5228 155.018 69.6342 154.826 69.7053C154.634 69.7764 154.429 69.8055 154.225 69.7906H5.5C5.14596 69.7603 4.81544 69.6015 4.57119 69.3443C4.32693 69.0872 4.18595 68.7497 4.175 68.3958V22.7405H19.75L13.475 25.0071V59.3046C13.4579 59.4918 13.479 59.6806 13.537 59.8595C13.595 60.0384 13.6887 60.2038 13.8124 60.3457C13.9362 60.4876 14.0875 60.6031 14.2572 60.6853C14.4269 60.7675 14.6115 60.8147 14.8 60.824H36.05C39.5366 60.7079 42.8421 59.2492 45.2713 56.7547C47.7005 54.2602 49.064 50.9243 49.075 47.4487C49.0828 45.1907 48.5102 42.9684 47.4118 40.9933C46.3133 39.0182 44.7257 37.3562 42.8 36.1656C44.0481 35.0591 45.0574 33.7113 45.7665 32.2041C46.4756 30.6969 46.8698 29.0618 46.925 27.3982C46.925 18.5062 40.6 13.5247 31.625 13.5247H22.825V4.20936H154.3C154.505 4.19013 154.712 4.21623 154.906 4.28578C155.099 4.35534 155.275 4.46664 155.421 4.61175C155.567 4.75687 155.678 4.93221 155.748 5.12528C155.818 5.31835 155.844 5.5244 155.825 5.72871V68.2713H155.75ZM145.325 17.3854H141.6C141.063 17.3023 140.515 17.4154 140.055 17.7038C139.596 17.9922 139.256 18.4365 139.1 18.9546L137.425 22.2174L130.275 34.6712L123.125 22.2174L121.275 18.9546C121.119 18.4365 120.779 17.9922 120.32 17.7038C119.86 17.4154 119.312 17.3023 118.775 17.3854H115.2C113.25 17.3854 114 18.9047 114 18.9047C114 18.9047 121.225 31.7072 127.025 41.969C127.025 41.969 126.9 54.2733 126.9 55.0703C126.875 55.2593 126.895 55.4514 126.956 55.6317C127.018 55.8121 127.121 55.976 127.256 56.1107C127.391 56.2454 127.555 56.3474 127.737 56.4089C127.918 56.4704 128.11 56.4896 128.3 56.4652H131.725C132.35 56.4652 133.425 56.4652 133.425 55.0703V41.9192C139.25 31.5826 146.45 18.8549 146.45 18.8549C146.45 18.8549 147.225 17.3854 145.325 17.3854Z" fill="white"/>
</svg>
