<?xml version="1.0" encoding="UTF-8"?>
<svg xmlns="http://www.w3.org/2000/svg" xmlns:xlink="http://www.w3.org/1999/xlink" width="200pt" height="90pt" viewBox="0 0 200 90" version="1.1">
<defs>
<filter id="alpha" filterUnits="objectBoundingBox" x="0%" y="0%" width="100%" height="100%">
  <feColorMatrix type="matrix" in="SourceGraphic" values="0 0 0 0 1 0 0 0 0 1 0 0 0 0 1 0 0 0 1 0"/>
</filter>
<mask id="mask0">
  <g filter="url(#alpha)">
<rect x="0" y="0" width="200" height="90" style="fill:rgb(0%,0%,0%);fill-opacity:0.2;stroke:none;"/>
  </g>
</mask>
<clipPath id="clip1">
  <rect x="0" y="0" width="200" height="90"/>
</clipPath>
<g id="surface5" clip-path="url(#clip1)">
<path style=" stroke:none;fill-rule:nonzero;fill:rgb(0%,0%,0%);fill-opacity:1;" d="M 51.96875 76.226562 L 51.96875 74.035156 L 57.847656 72.867188 L 61.765625 74.035156 L 61.765625 76.226562 L 57.847656 77.542969 Z M 51.96875 76.226562 "/>
<path style=" stroke:none;fill-rule:nonzero;fill:rgb(0%,0%,0%);fill-opacity:1;" d="M 45.601562 77.25 L 50.007812 74.621094 L 42.171875 76.375 Z M 45.601562 77.25 "/>
<path style=" stroke:none;fill-rule:nonzero;fill:rgb(0%,0%,0%);fill-opacity:1;" d="M 56.375 77.25 L 53.929688 74.621094 L 58.335938 76.375 L 63.234375 77.835938 L 70.578125 79.003906 L 61.765625 78.566406 Z M 56.375 77.25 "/>
<path style=" stroke:none;fill-rule:nonzero;fill:rgb(0%,0%,0%);fill-opacity:1;" d="M 59.804688 75.496094 L 55.886719 74.328125 L 59.804688 74.621094 L 65.191406 74.621094 L 70.578125 75.496094 L 65.191406 76.375 Z M 59.804688 75.496094 "/>
<path style=" stroke:none;fill-rule:nonzero;fill:rgb(0%,0%,0%);fill-opacity:1;" d="M 53.929688 78.566406 L 51.96875 75.496094 L 50.007812 77.835938 L 45.601562 79.003906 L 50.007812 79.589844 L 45.601562 80.320312 L 51.96875 80.320312 Z M 53.929688 78.566406 "/>
<path style=" stroke:none;fill-rule:nonzero;fill:rgb(0%,0%,0%);fill-opacity:1;" d="M 37.277344 78.566406 L 43.644531 77.835938 L 39.234375 76.375 L 33.847656 76.8125 Z M 37.277344 78.566406 "/>
<path style=" stroke:none;fill-rule:nonzero;fill:rgb(0%,0%,0%);fill-opacity:1;" d="M 42.171875 75.496094 L 48.050781 74.328125 L 43.644531 74.328125 L 36.296875 73.597656 L 31.886719 74.328125 L 36.296875 75.203125 Z M 42.171875 75.496094 "/>
<path style=" stroke:none;fill-rule:nonzero;fill:rgb(0%,0%,0%);fill-opacity:1;" d="M 28.460938 77.835938 L 33.847656 78.566406 L 31.886719 76.8125 L 28.460938 76.375 Z M 28.460938 77.835938 "/>
<path style=" stroke:none;fill-rule:nonzero;fill:rgb(0%,0%,0%);fill-opacity:1;" d="M 69.601562 77.542969 L 66.660156 77.835938 L 73.519531 78.566406 L 74.988281 77.835938 Z M 69.601562 77.542969 "/>
<path style=" stroke:none;fill-rule:nonzero;fill:rgb(0%,0%,0%);fill-opacity:1;" d="M 45.601562 82.222656 L 42.171875 81.636719 L 43.644531 80.90625 L 50.5 81.34375 Z M 45.601562 82.222656 "/>
<path style=" stroke:none;fill-rule:nonzero;fill:rgb(0%,0%,0%);fill-opacity:1;" d="M 49.03125 72.425781 L 44.132812 72.425781 L 43.644531 74.179688 L 49.03125 74.914062 L 53.4375 73.890625 Z M 49.03125 72.425781 "/>
<path style=" stroke:none;fill-rule:nonzero;fill:rgb(0%,0%,0%);fill-opacity:1;" d="M 6.117188 72.78125 C 6.117188 73.886719 8.003906 74.914062 11.769531 75.855469 L 18.664062 74.414062 C 15.539062 73.796875 13.976562 73.140625 13.976562 72.449219 C 13.976562 72.160156 14.285156 71.855469 14.894531 71.527344 C 15.539062 71.210938 16.183594 70.890625 16.828125 70.574219 C 17.46875 70.257812 17.792969 69.957031 17.792969 69.679688 C 17.792969 68.542969 15.28125 67.664062 10.253906 67.039062 L 8.460938 67.804688 C 9.6875 68.015625 10.53125 68.21875 10.988281 68.410156 C 11.480469 68.613281 11.726562 68.832031 11.726562 69.074219 C 11.726562 69.3125 11.433594 69.578125 10.851562 69.867188 C 10.269531 70.164062 9.625 70.433594 8.921875 70.675781 C 8.214844 70.925781 7.574219 71.238281 6.992188 71.613281 C 6.410156 71.996094 6.117188 72.386719 6.117188 72.78125 Z M 6.117188 72.78125 "/>
<path style=" stroke:none;fill-rule:nonzero;fill:rgb(0%,0%,0%);fill-opacity:1;" d="M 23.949219 73.550781 C 27.441406 73.90625 30.996094 74.082031 34.609375 74.082031 C 38.226562 74.082031 40.984375 73.894531 42.882812 73.519531 C 43.3125 73.097656 43.542969 72.691406 43.574219 72.308594 C 43.574219 71.402344 42.378906 70.644531 39.988281 70.027344 C 37.597656 69.414062 34.535156 68.96875 30.796875 68.699219 L 29.929688 65.570312 L 26.109375 65.945312 Z M 36.3125 71.960938 C 36.3125 72.566406 35.53125 73.019531 33.96875 73.316406 C 33.539062 73.316406 32.988281 73.289062 32.3125 73.230469 L 31.027344 69.507812 C 32.679688 69.796875 33.96875 70.167969 34.886719 70.621094 C 35.835938 71.070312 36.3125 71.519531 36.3125 71.960938 Z M 36.3125 71.960938 "/>
<path style=" stroke:none;fill-rule:nonzero;fill:rgb(0%,0%,0%);fill-opacity:1;" d="M 49.777344 65.945312 L 47.617188 73.792969 L 56.578125 73.96875 L 53.929688 65.570312 Z M 49.777344 65.945312 "/>
<path style=" stroke:none;fill-rule:nonzero;fill:rgb(0%,0%,0%);fill-opacity:1;" d="M 84.292969 73.910156 L 82.824219 65.570312 L 79.285156 65.929688 L 67.058594 72.265625 L 66.78125 72.265625 L 66.78125 65.570312 L 63.234375 65.570312 L 64.164062 73.792969 L 73.261719 73.96875 L 79.882812 68.066406 L 80.15625 68.066406 L 80.523438 73.851562 Z M 84.292969 73.910156 "/>
<path style=" stroke:none;fill-rule:nonzero;fill:rgb(0%,0%,0%);fill-opacity:1;" d="M 87.230469 65.570312 L 94.3125 73.96875 L 103.414062 73.792969 L 108.292969 65.570312 L 104.929688 65.929688 L 102.308594 67.894531 L 92.289062 67.632812 L 91.003906 65.929688 Z M 95.96875 72.480469 L 92.980469 68.542969 L 101.480469 68.511719 L 96.242188 72.480469 Z M 95.96875 72.480469 "/>
<path style=" stroke:none;fill-rule:nonzero;fill:rgb(0%,0%,0%);fill-opacity:1;" d="M 139.125 65.929688 L 133.746094 72.207031 L 133.425781 72.207031 L 129.351562 65.570312 L 125.933594 65.929688 L 117.796875 71.746094 L 117.566406 71.746094 L 116.617188 65.570312 L 113.1875 65.570312 L 114.949219 73.792969 L 124.046875 73.910156 L 127.863281 68.269531 L 132.277344 73.96875 L 141.375 73.792969 L 142.574219 65.570312 Z M 139.125 65.929688 "/>
<path style=" stroke:none;fill-rule:nonzero;fill:rgb(0%,0%,0%);fill-opacity:1;" d="M 149.144531 73.996094 C 152.851562 74.351562 156.328125 74.527344 159.574219 74.527344 C 162.824219 74.527344 165.414062 74.339844 167.34375 73.964844 C 167.773438 73.5625 167.988281 73.175781 167.988281 72.8125 C 167.988281 71.984375 166.851562 71.304688 164.585938 70.777344 C 165.996094 70.429688 167.113281 70.035156 167.941406 69.59375 C 168.769531 69.152344 169.179688 68.742188 169.179688 68.367188 C 169.179688 67.742188 168.261719 67.226562 166.425781 66.824219 C 164.617188 66.429688 161.765625 66.230469 157.875 66.230469 C 155.667969 66.230469 153.476562 66.285156 151.304688 66.390625 Z M 155.300781 67.257812 C 156.679688 67.140625 157.996094 67.082031 159.253906 67.082031 C 160.539062 67.082031 161.367188 67.109375 161.734375 67.15625 C 162.625 67.714844 163.070312 68.273438 163.070312 68.828125 C 163.070312 69.386719 162.65625 69.867188 161.828125 70.273438 C 160.328125 70.058594 158.441406 69.867188 156.175781 69.695312 Z M 156.40625 70.386719 C 158.089844 70.597656 159.421875 70.890625 160.402344 71.269531 C 161.382812 71.644531 161.875 71.984375 161.875 72.292969 C 161.875 72.609375 161.691406 72.898438 161.324219 73.15625 C 160.984375 73.425781 160.511719 73.628906 159.898438 73.765625 C 159.316406 73.765625 158.519531 73.714844 157.507812 73.621094 Z M 156.40625 70.386719 "/>
<path style=" stroke:none;fill-rule:nonzero;fill:rgb(0%,0%,0%);fill-opacity:1;" d="M 172.941406 65.570312 L 180.027344 73.96875 L 189.128906 73.792969 L 194 65.570312 L 190.644531 65.929688 L 188.023438 67.894531 L 178.007812 67.632812 L 176.71875 65.929688 Z M 181.683594 72.480469 L 178.695312 68.542969 L 187.199219 68.511719 L 181.957031 72.480469 Z M 181.683594 72.480469 "/>
</g>
<mask id="mask1">
  <g filter="url(#alpha)">
<rect x="0" y="0" width="200" height="90" style="fill:rgb(0%,0%,0%);fill-opacity:0.2;stroke:none;"/>
  </g>
</mask>
<clipPath id="clip2">
  <rect x="0" y="0" width="200" height="90"/>
</clipPath>
<g id="surface8" clip-path="url(#clip2)">
<path style=" stroke:none;fill-rule:nonzero;fill:rgb(0%,0%,0%);fill-opacity:1;" d="M 75.347656 75.675781 C 76.003906 75.675781 76.632812 75.707031 77.234375 75.773438 L 77.554688 75.488281 C 77.050781 75.441406 76.535156 75.417969 76.011719 75.417969 C 75.484375 75.417969 75.015625 75.4375 74.605469 75.46875 C 74.199219 75.5 73.890625 75.542969 73.667969 75.59375 C 73.5625 75.742188 73.511719 75.886719 73.519531 76.027344 C 73.519531 76.320312 73.714844 76.585938 74.101562 76.824219 C 74.5 77.0625 74.953125 77.230469 75.460938 77.324219 L 77.269531 77.003906 C 76.40625 76.851562 75.722656 76.652344 75.210938 76.414062 C 74.707031 76.175781 74.457031 75.933594 74.457031 75.695312 C 74.722656 75.683594 75.019531 75.675781 75.347656 75.675781 Z M 75.347656 75.675781 "/>
<path style=" stroke:none;fill-rule:nonzero;fill:rgb(0%,0%,0%);fill-opacity:1;" d="M 86.617188 75.484375 L 88.363281 77.230469 L 90.628906 77.191406 L 91.839844 75.484375 L 91.003906 75.445312 L 90.351562 75.882812 L 87.863281 75.824219 L 87.542969 75.445312 Z M 88.777344 76.902344 L 88.035156 76.027344 L 90.148438 76.019531 L 88.84375 76.902344 Z M 88.777344 76.902344 "/>
<path style=" stroke:none;fill-rule:nonzero;fill:rgb(0%,0%,0%);fill-opacity:1;" d="M 101.542969 76.640625 C 101.542969 76.886719 102.011719 77.113281 102.949219 77.324219 L 104.664062 77.003906 C 103.886719 76.867188 103.496094 76.722656 103.496094 76.566406 C 103.496094 76.503906 103.574219 76.433594 103.726562 76.363281 C 103.886719 76.292969 104.046875 76.222656 104.207031 76.152344 C 104.367188 76.082031 104.445312 76.015625 104.445312 75.953125 C 104.445312 75.699219 103.820312 75.503906 102.570312 75.367188 L 102.125 75.535156 C 102.429688 75.582031 102.640625 75.628906 102.753906 75.671875 C 102.875 75.714844 102.9375 75.765625 102.9375 75.816406 C 102.9375 75.871094 102.863281 75.929688 102.71875 75.992188 C 102.574219 76.058594 102.414062 76.121094 102.238281 76.171875 C 102.0625 76.230469 101.902344 76.296875 101.757812 76.382812 C 101.613281 76.46875 101.542969 76.554688 101.542969 76.640625 Z M 101.542969 76.640625 "/>
<path style=" stroke:none;fill-rule:nonzero;fill:rgb(0%,0%,0%);fill-opacity:1;" d="M 115.335938 75.449219 L 114.800781 77.191406 L 117.027344 77.230469 L 116.367188 75.472656 Z M 115.335938 75.449219 "/>
<path style=" stroke:none;fill-rule:nonzero;fill:rgb(0%,0%,0%);fill-opacity:1;" d="M 132.695312 77.21875 L 132.285156 75.484375 L 131.453125 75.445312 L 128.410156 76.851562 L 128.34375 76.851562 L 128.367188 75.484375 L 127.441406 75.472656 L 127.691406 77.191406 L 129.953125 77.230469 L 131.601562 75.921875 L 131.667969 75.921875 L 131.757812 77.207031 Z M 132.695312 77.21875 "/>
<path style=" stroke:none;fill-rule:nonzero;fill:rgb(0%,0%,0%);fill-opacity:1;" d="M 146.984375 76.027344 C 146.984375 75.921875 146.949219 75.832031 146.878906 75.761719 C 146.820312 75.691406 146.707031 75.628906 146.546875 75.574219 C 146.234375 75.472656 145.628906 75.421875 144.730469 75.421875 C 143.839844 75.421875 143.148438 75.476562 142.652344 75.59375 C 142.542969 75.742188 142.492188 75.886719 142.492188 76.027344 C 142.492188 76.320312 142.683594 76.578125 143.074219 76.808594 C 143.460938 77.035156 143.914062 77.199219 144.433594 77.296875 C 145.164062 77.214844 145.769531 77.058594 146.25 76.828125 C 146.738281 76.597656 146.984375 76.332031 146.984375 76.027344 Z M 145.839844 76.144531 C 145.839844 76.414062 145.683594 76.644531 145.371094 76.835938 C 144.769531 76.679688 144.296875 76.5 143.953125 76.296875 C 143.609375 76.09375 143.441406 75.890625 143.441406 75.695312 C 143.652344 75.683594 143.972656 75.675781 144.398438 75.675781 C 144.835938 75.675781 145.261719 75.695312 145.679688 75.734375 C 145.785156 75.871094 145.839844 76.007812 145.839844 76.144531 Z M 145.839844 76.144531 "/>
</g>
</defs>
<g id="surface1">
<path style=" stroke:none;fill-rule:nonzero;fill:rgb(98.039216%,100%,0%);fill-opacity:1;" d="M 49.03125 39.882812 L 51.699219 65.570312 L 141.105469 65.570312 L 136.210938 30.992188 L 123.3125 12.71875 L 90.398438 7.777344 L 63.265625 17.164062 Z M 49.03125 39.882812 "/>
<path style=" stroke:none;fill-rule:nonzero;fill:rgb(100%,54.117647%,0%);fill-opacity:1;" d="M 52.949219 31.285156 L 52.949219 38.632812 L 58.824219 42.550781 L 62.742188 38.632812 L 62.742188 31.285156 L 58.824219 26.878906 Z M 52.949219 31.285156 "/>
<path style=" stroke:none;fill-rule:nonzero;fill:rgb(99.215686%,100%,54.117647%);fill-opacity:1;" d="M 137.851562 27.367188 L 126.414062 32.667969 L 126.414062 47.121094 L 136.855469 56.753906 L 147.300781 54.828125 L 158.738281 43.265625 L 150.28125 29.296875 Z M 137.851562 27.367188 "/>
<path style=" stroke:none;fill-rule:nonzero;fill:rgb(99.215686%,100%,54.117647%);fill-opacity:1;" d="M 124.632812 10.714844 L 121.515625 12.128906 L 121.515625 15.984375 L 124.363281 18.554688 L 127.210938 18.039062 L 130.332031 14.957031 L 128.023438 11.230469 Z M 124.632812 10.714844 "/>
<path style=" stroke:none;fill-rule:nonzero;fill:rgb(0%,0%,0%);fill-opacity:1;" d="M 6 48.996094 C 6 45.472656 7.882812 42.214844 11.648438 39.214844 L 18.535156 43.804688 C 15.414062 45.765625 13.851562 47.847656 13.851562 50.050781 C 13.851562 50.96875 14.15625 51.949219 14.769531 52.988281 C 15.414062 54 16.054688 55.007812 16.699219 56.019531 C 17.339844 57.03125 17.664062 57.980469 17.664062 58.867188 C 17.664062 62.476562 15.152344 65.277344 10.132812 67.269531 L 8.339844 64.835938 C 9.566406 64.160156 10.40625 63.519531 10.867188 62.90625 C 11.355469 62.265625 11.601562 61.558594 11.601562 60.796875 C 11.601562 60.03125 11.3125 59.1875 10.730469 58.269531 C 10.148438 57.320312 9.503906 56.464844 8.800781 55.699219 C 8.097656 54.902344 7.453125 53.90625 6.871094 52.714844 C 6.289062 51.488281 6 50.25 6 48.996094 Z M 6 48.996094 "/>
<path style=" stroke:none;fill-rule:nonzero;fill:rgb(0%,0%,0%);fill-opacity:1;" d="M 24 41.878906 C 27.488281 40.746094 31.039062 40.179688 34.652344 40.179688 C 38.261719 40.179688 41.019531 40.777344 42.914062 41.96875 C 43.34375 43.316406 43.574219 44.601562 43.605469 45.828125 C 43.605469 48.703125 42.410156 51.121094 40.023438 53.082031 C 37.636719 55.039062 34.574219 56.449219 30.839844 57.304688 L 29.921875 65.707031 L 26.15625 66.074219 Z M 36.351562 46.929688 C 36.351562 45 35.570312 43.5625 34.007812 42.613281 C 33.578125 42.613281 33.027344 42.703125 32.355469 42.886719 L 31.070312 54.734375 C 32.722656 53.816406 34.007812 52.636719 34.925781 51.199219 C 35.875 49.761719 36.351562 48.335938 36.351562 46.929688 Z M 36.351562 46.929688 "/>
<path style=" stroke:none;fill-rule:nonzero;fill:rgb(0%,0%,0%);fill-opacity:1;" d="M 49.804688 66.074219 L 47.644531 41.097656 L 56.597656 40.546875 L 53.933594 65.707031 Z M 49.804688 66.074219 "/>
<path style=" stroke:none;fill-rule:nonzero;fill:rgb(0%,0%,0%);fill-opacity:1;" d="M 84.285156 40.730469 L 82.632812 65.570312 L 79.28125 66.121094 L 67.066406 45.964844 L 66.792969 45.964844 L 66.882812 65.570312 L 63.164062 65.753906 L 64.175781 41.097656 L 73.265625 40.546875 L 79.878906 59.324219 L 80.152344 59.324219 L 80.519531 40.914062 Z M 84.285156 40.730469 "/>
<path style=" stroke:none;fill-rule:nonzero;fill:rgb(0%,0%,0%);fill-opacity:1;" d="M 87.269531 65.570312 L 94.296875 40.546875 L 103.386719 41.097656 L 108.253906 65.570312 L 104.902344 66.121094 L 102.285156 59.875 L 92.273438 60.703125 L 90.988281 66.121094 Z M 95.949219 45.277344 L 92.964844 57.808594 L 101.457031 57.902344 L 96.222656 45.277344 Z M 95.949219 45.277344 "/>
<path style=" stroke:none;fill-rule:nonzero;fill:rgb(0%,0%,0%);fill-opacity:1;" d="M 139.0625 66.121094 L 133.691406 46.148438 L 133.367188 46.148438 L 129.28125 65.570312 L 125.882812 66.121094 L 117.757812 47.617188 L 117.527344 47.617188 L 116.886719 65.570312 L 113.167969 65.753906 L 114.910156 41.097656 L 124.003906 40.730469 L 127.8125 58.683594 L 132.222656 40.546875 L 141.3125 41.097656 L 142.460938 65.570312 Z M 139.0625 66.121094 "/>
<path style=" stroke:none;fill-rule:nonzero;fill:rgb(0%,0%,0%);fill-opacity:1;" d="M 149.070312 41.878906 C 152.777344 40.746094 156.25 40.179688 159.496094 40.179688 C 162.738281 40.179688 165.324219 40.777344 167.253906 41.96875 C 167.683594 43.253906 167.898438 44.480469 167.898438 45.644531 C 167.898438 48.273438 166.765625 50.433594 164.5 52.117188 C 165.90625 53.21875 167.023438 54.472656 167.851562 55.882812 C 168.679688 57.289062 169.089844 58.589844 169.089844 59.785156 C 169.089844 61.773438 168.171875 63.410156 166.335938 64.699219 C 164.53125 65.953125 161.683594 66.582031 157.796875 66.582031 C 155.59375 66.582031 153.402344 66.410156 151.230469 66.074219 Z M 155.222656 63.320312 C 156.601562 63.6875 157.917969 63.871094 159.171875 63.871094 C 160.460938 63.871094 161.285156 63.792969 161.652344 63.640625 C 162.539062 61.867188 162.984375 60.089844 162.984375 58.316406 C 162.984375 56.539062 162.570312 55.007812 161.746094 53.722656 C 160.246094 54.398438 158.363281 55.007812 156.097656 55.558594 Z M 156.328125 53.355469 C 158.011719 52.683594 159.339844 51.75 160.320312 50.554688 C 161.300781 49.363281 161.789062 48.273438 161.789062 47.296875 C 161.789062 46.285156 161.605469 45.367188 161.238281 44.539062 C 160.902344 43.683594 160.429688 43.039062 159.816406 42.613281 C 159.234375 42.613281 158.4375 42.765625 157.429688 43.070312 Z M 156.328125 53.355469 "/>
<path style=" stroke:none;fill-rule:nonzero;fill:rgb(0%,0%,0%);fill-opacity:1;" d="M 172.902344 65.570312 L 179.925781 40.546875 L 189.019531 41.097656 L 193.886719 65.570312 L 190.535156 66.121094 L 187.917969 59.875 L 177.90625 60.703125 L 176.621094 66.121094 Z M 181.578125 45.277344 L 178.59375 57.808594 L 187.089844 57.902344 L 181.855469 45.277344 Z M 181.578125 45.277344 "/>
<path style=" stroke:none;fill-rule:nonzero;fill:rgb(0%,0%,0%);fill-opacity:1;" d="M 46.582031 27.859375 L 50.988281 36.675781 L 43.152344 30.796875 Z M 46.582031 27.859375 "/>
<path style=" stroke:none;fill-rule:nonzero;fill:rgb(0%,0%,0%);fill-opacity:1;" d="M 57.355469 27.859375 L 54.90625 36.675781 L 59.316406 30.796875 L 64.214844 25.898438 L 71.558594 21.980469 L 62.742188 23.449219 Z M 57.355469 27.859375 "/>
<path style=" stroke:none;fill-rule:nonzero;fill:rgb(0%,0%,0%);fill-opacity:1;" d="M 60.785156 33.734375 L 56.867188 37.652344 L 60.785156 36.675781 L 66.171875 36.675781 L 71.558594 33.734375 L 66.171875 30.796875 Z M 60.785156 33.734375 "/>
<path style=" stroke:none;fill-rule:nonzero;fill:rgb(0%,0%,0%);fill-opacity:1;" d="M 54.90625 23.449219 L 52.949219 33.734375 L 50.988281 25.898438 L 46.582031 21.980469 L 50.988281 20.023438 L 46.582031 17.574219 L 52.949219 17.574219 Z M 54.90625 23.449219 "/>
<path style=" stroke:none;fill-rule:nonzero;fill:rgb(0%,0%,0%);fill-opacity:1;" d="M 38.253906 23.449219 L 44.621094 25.898438 L 40.214844 30.796875 L 34.828125 29.328125 Z M 38.253906 23.449219 "/>
<path style=" stroke:none;fill-rule:nonzero;fill:rgb(0%,0%,0%);fill-opacity:1;" d="M 43.152344 33.734375 L 49.03125 37.652344 L 44.621094 37.652344 L 37.277344 40.101562 L 32.867188 37.652344 L 37.277344 34.714844 Z M 43.152344 33.734375 "/>
<path style=" stroke:none;fill-rule:nonzero;fill:rgb(0%,0%,0%);fill-opacity:1;" d="M 29.441406 25.898438 L 34.828125 23.449219 L 32.867188 29.328125 L 29.441406 30.796875 Z M 29.441406 25.898438 "/>
<path style=" stroke:none;fill-rule:nonzero;fill:rgb(0%,0%,0%);fill-opacity:1;" d="M 70.578125 26.878906 L 67.640625 25.898438 L 74.496094 23.449219 L 75.96875 25.898438 Z M 70.578125 26.878906 "/>
<path style=" stroke:none;fill-rule:nonzero;fill:rgb(0%,0%,0%);fill-opacity:1;" d="M 46.582031 11.207031 L 43.152344 13.164062 L 44.621094 15.613281 L 51.480469 14.144531 Z M 46.582031 11.207031 "/>
<path style=" stroke:none;fill-rule:nonzero;fill:rgb(100%,54.117647%,0%);fill-opacity:1;" d="M 50.007812 44.019531 L 45.113281 44.019531 L 44.621094 38.144531 L 50.007812 35.695312 L 54.417969 39.121094 Z M 50.007812 44.019531 "/>
<use xlink:href="#surface5" mask="url(#mask0)"/>
<path style=" stroke:none;fill-rule:nonzero;fill:rgb(0%,0%,0%);fill-opacity:1;" d="M 75.296875 36.476562 C 75.957031 36.476562 76.585938 36.359375 77.191406 36.128906 L 77.511719 37.152344 C 77.007812 37.3125 76.492188 37.394531 75.964844 37.394531 C 75.433594 37.394531 74.964844 37.335938 74.550781 37.222656 C 74.144531 37.105469 73.832031 36.957031 73.609375 36.773438 C 73.503906 36.246094 73.453125 35.726562 73.460938 35.210938 C 73.460938 34.164062 73.65625 33.214844 74.046875 32.367188 C 74.445312 31.507812 74.898438 30.910156 75.414062 30.574219 L 77.226562 31.722656 C 76.359375 32.273438 75.671875 32.976562 75.160156 33.835938 C 74.65625 34.691406 74.402344 35.550781 74.402344 36.40625 C 74.671875 36.453125 74.96875 36.476562 75.296875 36.476562 Z M 75.296875 36.476562 "/>
<path style=" stroke:none;fill-rule:nonzero;fill:rgb(0%,0%,0%);fill-opacity:1;" d="M 86.617188 37.164062 L 88.371094 30.90625 L 90.644531 31.046875 L 91.863281 37.164062 L 91.023438 37.300781 L 90.371094 35.742188 L 87.867188 35.945312 L 87.546875 37.300781 Z M 88.785156 32.089844 L 88.039062 35.222656 L 90.164062 35.246094 L 88.855469 32.089844 Z M 88.785156 32.089844 "/>
<path style=" stroke:none;fill-rule:nonzero;fill:rgb(0%,0%,0%);fill-opacity:1;" d="M 101.605469 33.019531 C 101.605469 32.140625 102.078125 31.324219 103.019531 30.574219 L 104.742188 31.722656 C 103.960938 32.210938 103.570312 32.734375 103.570312 33.285156 C 103.570312 33.511719 103.648438 33.757812 103.800781 34.019531 C 103.960938 34.269531 104.121094 34.523438 104.28125 34.777344 C 104.441406 35.027344 104.523438 35.265625 104.523438 35.488281 C 104.523438 36.390625 103.894531 37.089844 102.640625 37.589844 L 102.191406 36.980469 C 102.5 36.8125 102.710938 36.652344 102.824219 36.496094 C 102.945312 36.335938 103.007812 36.160156 103.007812 35.96875 C 103.007812 35.777344 102.933594 35.566406 102.789062 35.339844 C 102.644531 35.101562 102.484375 34.886719 102.308594 34.695312 C 102.132812 34.496094 101.96875 34.25 101.824219 33.949219 C 101.679688 33.644531 101.605469 33.332031 101.605469 33.019531 Z M 101.605469 33.019531 "/>
<path style=" stroke:none;fill-rule:nonzero;fill:rgb(0%,0%,0%);fill-opacity:1;" d="M 115.460938 37.289062 L 114.921875 31.046875 L 117.160156 30.90625 L 116.496094 37.199219 Z M 115.460938 37.289062 "/>
<path style=" stroke:none;fill-rule:nonzero;fill:rgb(0%,0%,0%);fill-opacity:1;" d="M 132.898438 30.953125 L 132.484375 37.164062 L 131.648438 37.300781 L 128.59375 32.261719 L 128.523438 32.261719 L 128.546875 37.164062 L 127.617188 37.210938 L 127.871094 31.046875 L 130.144531 30.90625 L 131.796875 35.601562 L 131.867188 35.601562 L 131.957031 31 Z M 132.898438 30.953125 "/>
<path style=" stroke:none;fill-rule:nonzero;fill:rgb(0%,0%,0%);fill-opacity:1;" d="M 147.246094 35.210938 C 147.246094 35.59375 147.210938 35.914062 147.144531 36.164062 C 147.082031 36.417969 146.972656 36.644531 146.8125 36.84375 C 146.496094 37.203125 145.886719 37.382812 144.984375 37.382812 C 144.089844 37.390625 143.394531 37.1875 142.894531 36.773438 C 142.789062 36.246094 142.734375 35.726562 142.734375 35.210938 C 142.734375 34.171875 142.929688 33.242188 143.320312 32.421875 C 143.710938 31.605469 144.167969 31.019531 144.6875 30.667969 C 145.421875 30.964844 146.03125 31.527344 146.511719 32.355469 C 147.003906 33.179688 147.246094 34.132812 147.246094 35.210938 Z M 146.097656 34.800781 C 146.097656 33.835938 145.941406 33.007812 145.628906 32.320312 C 145.023438 32.878906 144.550781 33.523438 144.203125 34.257812 C 143.859375 34.988281 143.6875 35.703125 143.6875 36.40625 C 143.902344 36.453125 144.222656 36.476562 144.652344 36.476562 C 145.089844 36.476562 145.515625 36.40625 145.9375 36.269531 C 146.046875 35.777344 146.097656 35.289062 146.097656 34.800781 Z M 146.097656 34.800781 "/>
<use xlink:href="#surface8" mask="url(#mask1)"/>
</g>
</svg>
