<svg width="160" height="125" viewBox="0 0 160 125" fill="none" xmlns="http://www.w3.org/2000/svg">
<path d="M29.1099 123.761V115.52C29.158 114.827 29.0577 114.132 28.816 113.48C28.5742 112.829 28.1964 112.237 27.7078 111.743C27.2191 111.249 26.6309 110.865 25.9822 110.616C25.3335 110.368 24.6393 110.26 23.9457 110.301C23.038 110.241 22.1308 110.427 21.3191 110.837C20.5074 111.248 19.8207 111.869 19.3309 112.636C18.8845 111.892 18.2456 111.283 17.4818 110.872C16.718 110.461 15.8574 110.264 14.9908 110.301C14.2355 110.263 13.4832 110.423 12.8087 110.765C12.1341 111.107 11.5607 111.619 11.1452 112.251V110.631H8.28838V123.761H11.1726V116.536C11.1113 116.087 11.1499 115.63 11.2857 115.198C11.4215 114.766 11.6511 114.369 11.9581 114.035C12.2652 113.702 12.6421 113.441 13.0619 113.27C13.4817 113.099 13.934 113.023 14.3865 113.048C16.2819 113.048 17.2433 114.284 17.2433 116.509V123.816H20.1275V116.536C20.0687 116.088 20.1091 115.632 20.2458 115.201C20.3825 114.769 20.6122 114.373 20.9188 114.041C21.2253 113.708 21.6011 113.447 22.0198 113.275C22.4384 113.103 22.8896 113.026 23.3414 113.048C25.2917 113.048 26.2257 114.284 26.2257 116.509V123.816L29.1099 123.761ZM71.7831 110.631H67.0859V106.648H64.2017V110.631H61.5921V113.24H64.2566V119.283C64.2566 122.332 65.4378 124.145 68.8165 124.145C70.0787 124.15 71.3166 123.797 72.3874 123.129L71.5634 120.684C70.7973 121.141 69.9278 121.396 69.0362 121.426C67.6628 121.426 67.1408 120.547 67.1408 119.228V113.24H71.8106L71.7831 110.631ZM96.1482 110.301C95.4516 110.28 94.7625 110.448 94.1534 110.787C93.5442 111.125 93.0377 111.622 92.6871 112.224V110.631H89.8578V123.761H92.7145V116.399C92.7145 114.229 93.6485 113.02 95.4614 113.02C96.0725 113.012 96.6792 113.124 97.2469 113.35L98.1259 110.603C97.4735 110.37 96.7861 110.249 96.0932 110.246L96.1482 110.301ZM59.3122 111.674C57.6951 110.713 55.8359 110.236 53.9557 110.301C50.6319 110.301 48.4619 111.894 48.4619 114.504C48.4619 116.646 50.0551 117.965 52.9943 118.377L54.3677 118.569C55.9335 118.789 56.6751 119.201 56.6751 119.943C56.6751 120.959 55.6313 121.536 53.681 121.536C52.1123 121.581 50.5738 121.097 49.3134 120.162L47.94 122.387C49.6041 123.549 51.5972 124.146 53.6261 124.09C57.4168 124.09 59.6143 122.305 59.6143 119.805C59.6143 117.306 57.8838 116.289 55.027 115.877L53.6535 115.685C52.4174 115.52 51.4285 115.273 51.4285 114.394C51.4285 113.515 52.3625 112.856 53.9282 112.856C55.3754 112.872 56.7941 113.26 58.0486 113.982L59.3122 111.674ZM135.827 110.301C135.131 110.28 134.442 110.448 133.832 110.787C133.223 111.125 132.717 111.622 132.366 112.224V110.631H129.537V123.761H132.394V116.399C132.394 114.229 133.328 113.02 135.141 113.02C135.752 113.012 136.358 113.124 136.926 113.35L137.805 110.603C137.153 110.37 136.465 110.249 135.772 110.246L135.827 110.301ZM99.0187 117.168C98.9847 118.091 99.1437 119.011 99.4856 119.868C99.8274 120.726 100.345 121.503 101.004 122.149C101.663 122.796 102.45 123.297 103.315 123.622C104.179 123.947 105.101 124.088 106.023 124.035C107.739 124.123 109.424 123.564 110.748 122.47L109.375 120.162C108.387 120.915 107.183 121.33 105.941 121.343C104.885 121.258 103.9 120.778 103.182 119.999C102.463 119.221 102.064 118.2 102.064 117.141C102.064 116.081 102.463 115.061 103.182 114.282C103.9 113.503 104.885 113.023 105.941 112.938C107.183 112.952 108.387 113.366 109.375 114.119L110.748 111.812C109.424 110.717 107.739 110.159 106.023 110.246C105.101 110.194 104.179 110.334 103.315 110.659C102.45 110.984 101.663 111.486 101.004 112.132C100.345 112.779 99.8274 113.555 99.4856 114.413C99.1437 115.271 98.9847 116.191 99.0187 117.113V117.168ZM125.774 117.168V110.631H122.917V112.224C122.432 111.599 121.805 111.1 121.089 110.765C120.372 110.431 119.586 110.272 118.796 110.301C116.975 110.301 115.228 111.024 113.941 112.312C112.653 113.6 111.929 115.347 111.929 117.168C111.929 118.989 112.653 120.736 113.941 122.024C115.228 123.312 116.975 124.035 118.796 124.035C119.586 124.065 120.372 123.905 121.089 123.571C121.805 123.237 122.432 122.737 122.917 122.113V123.706H125.774V117.168ZM115.143 117.168C115.189 116.395 115.459 115.653 115.921 115.032C116.384 114.411 117.018 113.938 117.745 113.673C118.472 113.407 119.261 113.361 120.015 113.538C120.769 113.715 121.454 114.109 121.986 114.671C122.519 115.233 122.876 115.939 123.012 116.701C123.149 117.463 123.06 118.248 122.756 118.96C122.452 119.672 121.946 120.28 121.301 120.708C120.656 121.137 119.9 121.367 119.126 121.371C118.582 121.378 118.043 121.272 117.542 121.06C117.041 120.849 116.589 120.536 116.215 120.141C115.841 119.746 115.553 119.278 115.368 118.767C115.184 118.255 115.107 117.711 115.143 117.168V117.168ZM80.6694 110.301C78.848 110.326 77.1115 111.074 75.8416 112.38C74.5718 113.686 73.8727 115.443 73.8982 117.264C73.9237 119.086 74.6717 120.822 75.9776 122.092C77.2835 123.362 79.0403 124.061 80.8616 124.035C82.8377 124.137 84.7809 123.501 86.3142 122.25L84.9408 120.135C83.8563 121.005 82.5127 121.488 81.1226 121.508C80.1783 121.589 79.2395 121.299 78.506 120.699C77.7724 120.099 77.3019 119.236 77.1945 118.294H86.946C86.946 117.937 86.946 117.58 86.946 117.196C86.946 113.075 84.3914 110.328 80.7106 110.328L80.6694 110.301ZM80.6694 112.856C81.0968 112.846 81.5219 112.922 81.9204 113.077C82.3188 113.232 82.6827 113.464 82.9914 113.76C83.3 114.056 83.5474 114.41 83.7192 114.801C83.8911 115.193 83.9842 115.614 83.9931 116.042H77.1258C77.1756 115.16 77.5685 114.333 78.2206 113.738C78.8726 113.142 79.7319 112.825 80.6144 112.856H80.6694ZM152.24 117.196V105.356H149.493V112.224C149.008 111.599 148.381 111.1 147.665 110.765C146.948 110.431 146.163 110.272 145.373 110.301C143.551 110.301 141.805 111.024 140.517 112.312C139.229 113.6 138.505 115.347 138.505 117.168C138.505 118.989 139.229 120.736 140.517 122.024C141.805 123.312 143.551 124.035 145.373 124.035C146.163 124.065 146.948 123.905 147.665 123.571C148.381 123.237 149.008 122.737 149.493 122.113V123.706H152.24V117.196ZM157.006 121.852C157.184 121.849 157.362 121.882 157.528 121.948C157.686 122.012 157.83 122.105 157.954 122.222C158.074 122.341 158.172 122.481 158.242 122.635C158.312 122.795 158.347 122.968 158.347 123.143C158.347 123.318 158.312 123.49 158.242 123.651C158.172 123.805 158.074 123.944 157.954 124.063C157.83 124.18 157.686 124.273 157.528 124.338C157.363 124.41 157.186 124.448 157.006 124.447C156.746 124.446 156.491 124.37 156.272 124.229C156.053 124.087 155.879 123.887 155.77 123.651C155.701 123.49 155.666 123.317 155.666 123.143C155.666 122.968 155.701 122.795 155.77 122.635C155.84 122.481 155.938 122.341 156.058 122.222C156.182 122.105 156.326 122.012 156.484 121.948C156.663 121.877 156.855 121.844 157.047 121.852H157.006ZM157.006 124.173C157.143 124.174 157.279 124.146 157.404 124.09C157.522 124.038 157.63 123.963 157.72 123.871C157.892 123.683 157.987 123.438 157.987 123.184C157.987 122.93 157.892 122.685 157.72 122.497C157.63 122.404 157.522 122.33 157.404 122.277C157.279 122.223 157.143 122.195 157.006 122.195C156.869 122.196 156.734 122.224 156.608 122.277C156.484 122.328 156.372 122.403 156.278 122.497C156.106 122.685 156.011 122.93 156.011 123.184C156.011 123.438 156.106 123.683 156.278 123.871C156.372 123.965 156.484 124.039 156.608 124.09C156.746 124.15 156.896 124.178 157.047 124.173H157.006ZM157.088 122.538C157.216 122.532 157.343 122.571 157.445 122.648C157.487 122.683 157.521 122.727 157.542 122.778C157.564 122.828 157.573 122.882 157.569 122.937C157.571 122.982 157.563 123.028 157.547 123.07C157.53 123.113 157.505 123.152 157.473 123.184C157.393 123.256 157.292 123.3 157.184 123.307L157.583 123.761H157.267L156.896 123.307H156.772V123.761H156.511V122.552L157.088 122.538ZM156.786 122.772V123.101H157.088C157.142 123.118 157.199 123.118 157.253 123.101C157.263 123.082 157.268 123.061 157.268 123.04C157.268 123.018 157.263 122.997 157.253 122.978C157.263 122.959 157.268 122.938 157.268 122.916C157.268 122.895 157.263 122.873 157.253 122.854C157.199 122.838 157.142 122.838 157.088 122.854L156.786 122.772ZM141.678 117.196C141.724 116.423 141.994 115.68 142.457 115.059C142.919 114.438 143.553 113.966 144.28 113.7C145.007 113.435 145.796 113.388 146.55 113.566C147.304 113.743 147.989 114.137 148.522 114.699C149.054 115.261 149.411 115.966 149.547 116.728C149.684 117.49 149.595 118.276 149.291 118.988C148.987 119.7 148.481 120.307 147.836 120.736C147.192 121.164 146.435 121.394 145.661 121.398C145.117 121.405 144.578 121.3 144.077 121.088C143.576 120.876 143.124 120.563 142.75 120.168C142.376 119.774 142.088 119.306 141.903 118.794C141.719 118.283 141.642 117.738 141.678 117.196V117.196ZM45.2205 117.196V110.631H42.3638V112.224C41.8786 111.599 41.252 111.1 40.5355 110.765C39.8191 110.431 39.0335 110.272 38.2434 110.301C36.4221 110.301 34.6754 111.024 33.3875 112.312C32.0996 113.6 31.3761 115.347 31.3761 117.168C31.3761 118.989 32.0996 120.736 33.3875 122.024C34.6754 123.312 36.4221 124.035 38.2434 124.035C39.0335 124.065 39.8191 123.905 40.5355 123.571C41.252 123.237 41.8786 122.737 42.3638 122.113V123.706H45.2205V117.196ZM34.59 117.196C34.6356 116.423 34.9062 115.68 35.3685 115.059C35.8308 114.438 36.4646 113.966 37.1919 113.7C37.9193 113.435 38.7083 113.388 39.4619 113.566C40.2156 113.743 40.9009 114.137 41.4334 114.699C41.966 115.261 42.3226 115.966 42.4593 116.728C42.596 117.49 42.5069 118.276 42.2029 118.988C41.8989 119.7 41.3933 120.307 40.7483 120.736C40.1034 121.164 39.3472 121.394 38.573 121.398C38.0269 121.409 37.4845 121.306 36.9803 121.096C36.4761 120.886 36.021 120.574 35.6439 120.179C35.2668 119.783 34.976 119.314 34.7898 118.801C34.6037 118.287 34.5263 117.741 34.5625 117.196H34.59Z" fill="white"/>
<path d="M101.628 10.5745H58.3645V88.3257H101.628V10.5745Z" fill="#FF5F00"/>
<path d="M61.1114 49.4566C61.1034 41.9675 62.7996 34.5748 66.0715 27.8383C69.3434 21.1017 74.1052 15.198 79.9964 10.5741C72.7021 4.84162 63.9423 1.27692 54.7179 0.28743C45.4936 -0.702059 36.1769 0.92358 27.8328 4.97856C19.4887 9.03353 12.4537 15.3542 7.53187 23.2183C2.61006 31.0823 0 40.1724 0 49.4497C0 58.727 2.61006 67.8171 7.53187 75.6811C12.4537 83.5452 19.4887 89.8659 27.8328 93.9208C36.1769 97.9758 45.4936 99.6014 54.7179 98.612C63.9423 97.6225 72.7021 94.0578 79.9964 88.3253C74.107 83.7028 69.3463 77.8013 66.0745 71.0673C62.8027 64.3333 61.1055 56.9433 61.1114 49.4566V49.4566Z" fill="#EB001B"/>
<path d="M160 49.4569C160 58.7349 157.389 67.8256 152.466 75.6899C147.544 83.5542 140.508 89.8748 132.163 93.9292C123.817 97.9836 114.5 99.6082 105.275 98.6173C96.05 97.6264 87.2901 94.0599 79.9964 88.3256C85.8834 83.6991 90.6428 77.7959 93.9154 71.0616C97.1881 64.3272 98.8886 56.9375 98.8886 49.4501C98.8886 41.9626 97.1881 34.5729 93.9154 27.8385C90.6428 21.1042 85.8834 15.201 79.9964 10.5745C87.2901 4.84018 96.05 1.27375 105.275 0.282838C114.5 -0.708073 123.817 0.916521 132.163 4.97092C140.508 9.02532 147.544 15.3459 152.466 23.2102C157.389 31.0746 160 40.1652 160 49.4432V49.4569Z" fill="#F79E1B"/>
<path d="M155.275 80.0849V78.4917H155.921V78.1621H154.286V78.4917H154.987V80.0849H155.275ZM158.448 80.0849V78.1621H157.954L157.377 79.5355L156.8 78.1621H156.36V80.0849H156.717V78.6428L157.253 79.8926H157.624L158.16 78.6428V80.0987L158.448 80.0849Z" fill="#F79E1B"/>
</svg>
