<svg width="161" height="76" viewBox="0 0 161 76" fill="none" xmlns="http://www.w3.org/2000/svg">
<path d="M0.967773 20.7117H12.8547C14.7908 20.714 16.7209 20.9279 18.6111 21.3498C20.1737 21.6683 21.6537 22.3103 22.9572 23.2353C24.1696 24.109 25.1566 25.2629 25.8354 26.6002C26.5072 28.1343 26.841 29.7969 26.814 31.4735C26.8644 33.2426 26.4787 34.9967 25.6915 36.5788C24.9633 37.9537 23.8919 39.1135 22.5831 39.9437C21.1946 40.8677 19.6398 41.5083 18.0067 41.8292C16.2205 42.2327 14.3973 42.4466 12.5669 42.4673H7.44372V57.6963H0.967773V20.7117ZM11.9913 36.8109C13.0319 36.7915 14.0703 36.7043 15.0997 36.5498C16.02 36.4733 16.9084 36.1748 17.6901 35.6796C18.423 35.2809 19.0613 34.7266 19.5609 34.0551C20.0461 33.2232 20.267 32.2616 20.1942 31.2994C20.2196 30.3877 20.0009 29.4858 19.5609 28.6887C19.1118 28.0251 18.5219 27.4702 17.834 27.0643C17.0535 26.6831 16.2181 26.4285 15.3588 26.3101C14.2363 26.3101 13.2577 26.3101 12.2503 26.3101H7.44372V36.9269L11.9913 36.8109Z" fill="white"/>
<path d="M44.8603 54.4182C44.18 55.5936 43.1817 56.5494 41.9821 57.1739C40.5365 57.9396 38.9237 58.3285 37.2907 58.3052C36.2438 58.2966 35.2012 58.1701 34.1822 57.9281C33.1673 57.6568 32.1975 57.2365 31.304 56.6808C30.4143 56.0459 29.6606 55.237 29.0878 54.3021C28.4683 53.199 28.1691 51.9425 28.2244 50.6762C28.1749 49.8556 28.2924 49.0335 28.5695 48.2604C28.8467 47.4872 29.2777 46.7793 29.8361 46.18C30.9324 44.97 32.3513 44.104 33.9232 43.6854C35.5873 43.0597 37.3321 42.6787 39.1039 42.5541C41.0807 42.3129 43.0706 42.1966 45.0618 42.206V41.5678C45.1029 40.8858 44.9649 40.205 44.6617 39.5939C44.3585 38.9828 43.9009 38.463 43.3349 38.0869C42.1518 37.3206 40.769 36.9268 39.363 36.9556C38.0716 36.9178 36.7924 37.2176 35.6501 37.8259C34.5687 38.2945 33.5904 38.9748 32.7719 39.8274L29.5483 36.0854C30.9325 34.7768 32.5824 33.787 34.3837 33.1846C36.1799 32.5542 38.0655 32.2212 39.9674 32.1984C41.8281 32.1545 43.6784 32.49 45.4072 33.1846C46.7214 33.7004 47.8743 34.5618 48.7459 35.6793C49.5597 36.6595 50.1493 37.8083 50.4728 39.0442C50.8174 40.2605 50.9822 41.5214 50.9621 42.7861V58.0151H45.2057V54.4182H44.8603ZM44.8603 46.18H43.5076C42.4724 46.1173 41.4343 46.1173 40.3991 46.18C39.3403 46.2587 38.2957 46.4732 37.2907 46.8182C36.422 47.0527 35.6159 47.4788 34.9305 48.0655C34.6162 48.3438 34.3657 48.6877 34.1967 49.0735C34.0277 49.4592 33.9442 49.8775 33.952 50.2991C33.9254 50.8282 34.0556 51.3533 34.3261 51.8075C34.5892 52.1943 34.9209 52.5287 35.3047 52.7937C35.726 53.0313 36.1829 53.1978 36.6575 53.2869C37.785 53.4899 38.9424 53.4501 40.0536 53.1702C41.1648 52.8902 42.2046 52.3764 43.1046 51.6625C43.6841 51.048 44.1375 50.3242 44.4388 49.5328C44.74 48.7413 44.8833 47.8977 44.8603 47.0503V46.18Z" fill="white"/>
<path d="M52.6027 32.5754H59.5391L66.4756 50.9082L72.6637 32.6915H79.1109L67.4542 62.8883C67.0026 63.8793 66.5031 64.8473 65.9575 65.7891C65.472 66.6408 64.8383 67.3974 64.0867 68.0226C63.3359 68.6675 62.4505 69.1336 61.4963 69.386C60.3367 69.7693 59.1176 69.9364 57.8986 69.8791C57.3628 69.9365 56.8225 69.9365 56.2868 69.8791C55.7415 69.8535 55.2008 69.7659 54.675 69.6181L55.1643 64.2517C55.5622 64.3982 55.9791 64.4862 56.4019 64.5127C56.7761 64.5127 57.1502 64.5127 57.5244 64.5127C58.0716 64.507 58.6148 64.4191 59.1362 64.2517C59.5927 64.1551 59.9947 63.885 60.2587 63.4975C60.6147 63.1341 60.9067 62.7123 61.1222 62.2501C61.3812 61.757 61.6114 61.1189 61.8705 60.5097L63.1081 57.3769L52.6027 32.5754Z" fill="white"/>
<path d="M144.475 0.000233889H102.136C97.732 0.000233889 93.5079 1.76363 90.3934 4.90249C87.279 8.04135 85.5293 12.2986 85.5293 16.7376V59.2626C85.5293 63.7017 87.279 67.9589 90.3934 71.0977C93.5079 74.2366 97.732 76 102.136 76H144.36C148.764 76 152.988 74.2366 156.103 71.0977C159.217 67.9589 160.967 63.7017 160.967 59.2626V16.7086C160.99 14.5153 160.58 12.3394 159.76 10.3075C158.94 8.27559 157.728 6.42835 156.193 4.87335C154.658 3.31835 152.832 2.08667 150.82 1.25005C148.808 0.41342 146.651 -0.0114321 144.475 0.000233889V0.000233889ZM117.851 18.333H120.068C121.879 18.2277 123.696 18.2277 125.507 18.333C129.273 18.3279 132.965 19.3742 136.176 21.3558C139.387 23.3374 141.991 26.1768 143.698 29.5589L139.352 31.6765C137.983 29.1071 135.949 26.9598 133.465 25.4632C130.982 23.9666 128.142 23.1765 125.248 23.1773H122.572V46.0062H117.851V18.333ZM102.252 21.4658C102.252 20.7028 102.476 19.9569 102.897 19.3224C103.317 18.688 103.915 18.1935 104.615 17.9015C105.314 17.6095 106.084 17.5331 106.826 17.6819C107.569 17.8308 108.251 18.1982 108.786 18.7378C109.322 19.2773 109.686 19.9648 109.834 20.7132C109.982 21.4615 109.906 22.2373 109.616 22.9422C109.326 23.6472 108.836 24.2497 108.206 24.6736C107.577 25.0976 106.837 25.3238 106.08 25.3238C105.067 25.3162 104.097 24.9073 103.381 24.1854C102.665 23.4636 102.259 22.4867 102.252 21.4658V21.4658ZM145.223 42.4383C143.352 52.5329 134.833 58.9146 122.198 58.9146H103.374V31.5604H108.181V54.0123H122.284C131.955 54.0123 138.258 49.7772 140.129 42.4093H135.955L142.777 33.707L149.713 42.4093H145.223V42.4383Z" fill="white"/>
</svg>
