<svg width="160" height="34" viewBox="0 0 160 34" fill="none" xmlns="http://www.w3.org/2000/svg">
<path d="M160 6.6625C159.71 7.41244 159.353 8.13429 158.931 8.81899C158.372 9.56715 157.631 10.1609 156.779 10.5445C155.927 10.9281 154.992 11.089 154.061 11.0121C153.13 10.9352 152.233 10.623 151.456 10.1049C150.679 9.5867 150.045 8.87953 149.616 8.04969C149.187 7.21986 148.975 6.29457 149.002 5.36064C149.028 4.42672 149.291 3.51476 149.766 2.71035C150.241 1.90593 150.913 1.23542 151.718 0.761721C152.524 0.288025 153.436 0.0266722 154.37 0.00218399C155.615 -0.0329112 156.835 0.355841 157.83 1.10475C158.825 1.85366 159.536 2.91833 159.847 4.12432C159.847 4.23883 159.847 4.3915 160 4.44875V6.6625ZM155.859 7.97929L157.366 5.05944C157.366 6.03272 157.824 6.96784 157.252 7.88387H158.511C158.206 7.23645 158.047 6.5293 158.047 5.81326C158.047 5.09722 158.206 4.39007 158.511 3.74265C157.882 3.55181 157.538 3.74265 157.29 4.41059C157.042 5.07853 156.489 6.08998 156.011 7.02509C155.549 6.16456 155.135 5.27897 154.771 4.37242C154.542 3.70448 154.198 3.55181 153.569 3.74265C153.864 4.39199 154.003 5.10184 153.973 5.8147C153.943 6.52755 153.746 7.22334 153.397 7.8457H154.561C153.721 6.92967 154.389 5.9373 154.427 4.96402L155.859 7.97929ZM150.324 6.07089C151.095 6.2481 151.902 6.18141 152.634 5.88005C152.86 5.79921 153.051 5.64336 153.176 5.43847C153.301 5.23358 153.352 4.99204 153.321 4.7541C153.314 4.51366 153.228 4.2821 153.076 4.09564C152.925 3.90918 152.715 3.77834 152.481 3.72356C151.749 3.58913 150.999 3.58913 150.267 3.72356C150.802 4.12433 150.802 4.12433 150.821 4.65868C150.84 5.19303 150.821 5.2312 150.821 5.51746C150.821 5.80372 150.821 5.89914 151.107 5.88005C151.393 5.86097 151.336 5.7083 151.336 5.55562C151.336 5.40295 151.336 4.92585 151.336 4.60142C151.336 4.277 151.164 3.95257 151.622 3.9144C151.793 3.88227 151.969 3.90138 152.128 3.96931C152.288 4.03724 152.424 4.15095 152.519 4.29608C152.614 4.43141 152.674 4.58747 152.696 4.75112C152.717 4.91477 152.699 5.08122 152.643 5.23646C152.587 5.3917 152.495 5.53119 152.373 5.64319C152.252 5.7552 152.106 5.83643 151.947 5.88005C151.41 5.98065 150.869 6.05073 150.324 6.08998V6.07089ZM150.114 7.97929H151.87C151.298 7.76937 151.317 7.31135 151.336 6.87242C151.355 6.43349 151.336 6.4144 151.107 6.39532C150.878 6.37624 150.84 6.64341 150.84 6.83425C150.859 7.07331 150.795 7.31162 150.66 7.50953C150.524 7.70744 150.325 7.85302 150.095 7.92204L150.114 7.97929Z" fill="#EF1515"/>
<path d="M99.1985 33.1894C99.1985 31.2301 99.1985 29.2645 99.1985 27.2925C99.1985 27.1016 99.1985 26.8154 99.4656 26.8535C99.7328 26.8917 100.114 26.6436 100.21 27.0253C100.305 27.407 100.305 27.3306 100.572 27.1589C100.943 26.8704 101.406 26.7285 101.874 26.7602C102.343 26.7918 102.783 26.9949 103.111 27.3306C103.454 27.8125 103.639 28.3896 103.639 28.9814C103.639 29.5732 103.454 30.1503 103.111 30.6322C102.822 31.0122 102.401 31.2701 101.931 31.3548C101.461 31.4396 100.976 31.3452 100.572 31.0902L100.324 30.9757C100.298 31.4843 100.298 31.9938 100.324 32.5024C100.339 32.6357 100.317 32.7705 100.259 32.8918C100.202 33.0131 100.112 33.1161 100 33.1894H99.1985ZM100.305 29.0673C100.305 30.0596 100.802 30.6322 101.527 30.4604C102.252 30.2887 102.538 29.5635 102.366 28.6665C102.252 28.0749 101.927 27.6551 101.26 27.6932C100.592 27.7314 100.305 28.1894 100.305 29.0673Z" fill="white"/>
<path d="M94.8858 6.75784C94.5613 7.38761 94.1987 7.97921 93.9125 8.66624C92.1377 12.7311 89.8285 16.5479 88.1873 20.6319C88.1873 20.8227 88.0346 21.0517 87.7674 21.0517C87.5003 21.0517 87.4812 20.8609 87.4048 20.6891C85.8972 16.8723 83.9697 13.3227 82.3285 9.60135C81.9274 8.62663 81.4554 7.68262 80.9163 6.77692C80.8018 9.00975 80.6873 11.2617 80.5919 13.4945C80.5919 14.9449 80.5918 16.3762 80.4773 17.8265C80.4773 18.1891 80.4773 18.5517 80.4773 18.9143C80.4735 19.0807 80.5054 19.246 80.5709 19.399C80.6363 19.552 80.7338 19.6892 80.8568 19.8014C80.9798 19.9135 81.1254 19.998 81.2838 20.0491C81.4422 20.1002 81.6097 20.1167 81.7751 20.0975H82.1758C82.4812 20.0975 82.8056 20.0975 82.7674 20.5365C82.7293 20.9754 82.4239 20.88 82.1758 20.8418C80.9683 20.7685 79.7574 20.7685 78.5499 20.8418C78.1049 20.8174 77.6589 20.8174 77.214 20.8418C76.9468 20.8418 76.7369 20.8418 76.6987 20.5174C76.6605 20.193 76.8132 20.1357 77.0995 20.0785C78.798 19.7349 78.8552 19.7349 79.0079 18.0365C79.4277 13.7998 79.714 9.5441 79.7712 5.28837C79.7712 4.21967 79.5231 3.93341 78.5117 3.7044L77.8819 3.5899C77.6529 3.5899 77.4621 3.58989 77.4812 3.20821C77.5002 2.82653 77.672 2.88379 77.9201 2.88379H81.7369C81.985 2.88379 82.1186 2.88379 82.1186 3.24638C82.2089 4.32528 82.5276 5.37263 83.0537 6.31891C84.8094 9.92578 86.5842 13.5327 88.359 17.1968C88.8012 16.7437 89.1455 16.2045 89.3705 15.6128C91.0308 12.2159 92.672 8.81891 94.3323 5.42196C94.6388 4.86917 94.8516 4.26946 94.9621 3.64715C94.9621 2.94104 95.401 2.88379 95.9926 2.90287C97.0422 2.90287 98.0919 2.90287 99.1415 2.90287C99.3705 2.90287 99.6186 2.90287 99.6567 3.20821C99.6949 3.51356 99.4468 3.57081 99.2178 3.60898L98.5117 3.7044C98.1656 3.719 97.8383 3.86559 97.597 4.11404C97.3556 4.36249 97.2186 4.69393 97.214 5.04028C97.1044 7.14445 97.1044 9.2529 97.214 11.3571C97.214 13.5327 97.3667 15.7082 97.443 17.9029C97.443 19.296 97.443 20.1357 99.3514 20.1357C99.6568 20.1357 99.7713 20.2884 99.7331 20.5746C99.6949 20.8609 99.5422 20.9182 99.2942 20.8991C97.3256 20.7339 95.3467 20.7339 93.3781 20.8991C93.0728 20.8991 92.9392 20.7464 92.9201 20.4792C92.901 20.212 93.0919 20.1357 93.3209 20.1166H94.027C94.1784 20.1148 94.3277 20.0814 94.4655 20.0186C94.6033 19.9557 94.7264 19.8648 94.827 19.7516C94.9276 19.6384 95.0034 19.5055 95.0497 19.3613C95.096 19.2172 95.1116 19.0649 95.0957 18.9143C95.0957 14.9194 95.0957 10.9245 95.0957 6.92959L94.8858 6.75784Z" fill="#EF1515"/>
<path d="M112.92 15.5936C112.92 14.6776 112.92 13.6852 112.92 12.8265C112.967 12.5259 112.923 12.2181 112.794 11.9427C112.665 11.6673 112.456 11.4367 112.195 11.2807C111.813 11.0517 111.68 10.7845 112.195 10.5555C112.994 10.2305 113.772 9.85439 114.523 9.42952C114.905 9.20051 114.943 9.42952 114.981 9.75394C115.096 11.0135 115.096 11.0135 116.279 10.441C116.933 10.104 117.634 9.86604 118.359 9.73486C118.834 9.61423 119.332 9.60912 119.809 9.71994C120.287 9.83077 120.731 10.0543 121.105 10.3719C121.478 10.6895 121.771 11.0919 121.957 11.5454C122.143 11.999 122.218 12.4906 122.176 12.9791C122.176 14.8875 122.176 16.7959 122.176 18.7043C122.176 19.7921 122.328 19.9257 123.359 20.0975C123.626 20.0975 123.931 20.0975 123.893 20.5173C123.855 20.9372 123.55 20.8799 123.244 20.8608C121.854 20.7349 120.455 20.7349 119.065 20.8608C118.779 20.8608 118.512 20.8608 118.473 20.5364C118.435 20.212 118.683 20.1165 118.97 20.0975C119.79 20.0975 120.096 19.5631 120.077 18.7807C120.077 17.0631 120.077 15.3646 120.077 13.6471C120.131 13.1818 120.039 12.7111 119.813 12.3006C119.587 11.8901 119.239 11.5603 118.817 11.357C118.314 11.1209 117.757 11.023 117.204 11.0733C116.65 11.1236 116.12 11.3203 115.668 11.6433C115.418 11.8178 115.217 12.0531 115.084 12.3269C114.95 12.6007 114.889 12.9039 114.905 13.2081C114.905 15.1165 114.905 17.0249 114.905 18.8188C114.905 19.5631 115.21 20.0211 115.993 20.0784C116.279 20.0784 116.527 20.0784 116.489 20.5173C116.451 20.9562 116.202 20.8608 115.916 20.8417C114.526 20.7149 113.127 20.7149 111.737 20.8417C111.431 20.8417 111.202 20.8417 111.183 20.4791C111.164 20.1165 111.355 20.1166 111.622 20.0784C112.653 19.8875 112.806 19.7349 112.825 18.6853C112.844 17.6356 112.92 16.6242 112.92 15.5936Z" fill="#EF1515"/>
<path d="M0 12.7124C1.58397 12.5788 2.93893 12.7124 4.2939 12.7124C5.7919 12.787 7.29322 12.6651 8.75955 12.3498C9.78418 12.1117 10.679 11.491 11.2609 10.6147C11.8428 9.73834 12.0676 8.67272 11.8893 7.63602C11.8893 6.62374 11.4872 5.65292 10.7714 4.93713C10.0556 4.22135 9.08481 3.81922 8.07253 3.81922C6.16413 3.66655 6.16413 3.66655 6.16413 5.57495C6.16413 7.48335 6.16413 9.58259 6.16413 11.5673C6.16413 12.0635 6.04962 12.2353 5.51527 12.2353C3.9313 12.2353 3.95039 12.2353 3.9313 10.6895C3.91222 9.14365 3.9313 7.21617 3.9313 5.47953C3.9313 4.21999 3.60687 4.01006 2.36642 3.87647H2.23283C1.94657 3.87647 1.62214 3.87647 1.64122 3.43754C1.66031 2.99861 1.96565 3.09403 2.21374 3.05586C3.62861 2.92959 5.04919 2.87862 6.46947 2.90319C8.0755 2.77896 9.69084 2.9405 11.2405 3.38029C11.9522 3.63482 12.5951 4.05103 13.1188 4.59616C13.6424 5.14129 14.0323 5.80049 14.258 6.52188C14.4837 7.24328 14.5389 8.00719 14.4193 8.75354C14.2997 9.49988 14.0085 10.2083 13.5687 10.823C12.4796 12.0632 10.9844 12.8751 9.35116 13.1131C6.2419 13.659 3.05115 13.5222 0 12.7124Z" fill="#EF1515"/>
<path d="M99.6754 15.4793C99.6751 14.7144 99.8281 13.9573 100.125 13.2525C100.423 12.5478 100.858 11.9097 101.406 11.376C101.954 10.8424 102.603 10.4239 103.315 10.1453C104.028 9.86673 104.789 9.73371 105.553 9.75411C106.29 9.75838 107.018 9.9117 107.694 10.2048C108.369 10.498 108.979 10.9249 109.485 11.4598C109.992 11.9947 110.385 12.6266 110.64 13.3174C110.896 14.0082 111.009 14.7436 110.973 15.4793C110.997 16.2376 110.865 16.9927 110.586 17.6981C110.307 18.4035 109.886 19.0442 109.349 19.5807C108.813 20.1171 108.172 20.538 107.467 20.8173C106.761 21.0966 106.006 21.2283 105.248 21.2045C104.496 21.2298 103.748 21.0978 103.05 20.817C102.352 20.5362 101.721 20.1127 101.196 19.5738C100.671 19.0348 100.265 18.3922 100.003 17.6871C99.7415 16.982 99.6298 16.2301 99.6754 15.4793ZM108.588 15.4793C108.652 14.003 108.154 12.5573 107.194 11.4335C106.926 11.1332 106.592 10.8986 106.218 10.7478C105.844 10.5969 105.441 10.5338 105.039 10.5633C104.637 10.5928 104.248 10.7141 103.9 10.9179C103.552 11.1217 103.256 11.4026 103.034 11.7388C102.531 12.4472 102.228 13.2777 102.156 14.1434C101.969 15.087 102.004 16.0614 102.259 16.989C102.514 17.9167 102.982 18.772 103.626 19.4869C103.909 19.7729 104.253 19.9912 104.632 20.1255C105.012 20.2598 105.417 20.3067 105.817 20.2627C106.217 20.2186 106.601 20.0848 106.942 19.8712C107.284 19.6575 107.572 19.3696 107.786 19.0289C108.394 17.9631 108.673 16.7414 108.588 15.5175V15.4793Z" fill="#EF1515"/>
<path d="M36.3359 15.384C36.3359 16.4718 36.3359 17.5405 36.3359 18.6283C36.3359 19.7161 36.5458 19.9832 37.6908 20.0977C37.958 20.0977 38.416 19.926 38.3969 20.4603C38.3779 20.9947 37.958 20.842 37.6336 20.8229C36.1408 20.7096 34.6416 20.7096 33.1488 20.8229C32.8817 20.8229 32.5954 20.9374 32.5382 20.5367C32.4809 20.1359 32.7099 20.1168 32.9962 20.0596C34.084 19.8687 34.2557 19.7351 34.2557 18.6474C34.2557 16.3573 34.2557 14.0672 34.2557 11.7771C34.2557 11.1283 33.8168 11.2809 33.4351 11.2428C33.0534 11.2046 32.7672 11.4336 32.7672 11.0138C32.7672 10.5939 33.0725 10.4985 33.3397 10.4031C33.6637 10.3064 33.943 10.0981 34.1282 9.8152C34.3133 9.53225 34.3923 9.1929 34.3511 8.85728C34.2789 6.78159 34.9563 4.74928 36.2595 3.13208C36.8517 2.41974 37.6355 1.89197 38.5182 1.61125C39.401 1.33053 40.3457 1.30862 41.2405 1.54811C41.4905 1.58557 41.7306 1.67234 41.9468 1.80339C42.1631 1.93443 42.3511 2.10714 42.5 2.31147C42.6797 2.51392 42.7716 2.77947 42.7555 3.04968C42.7394 3.31989 42.6166 3.57263 42.4141 3.75231C42.2117 3.93199 41.9461 4.02388 41.6759 4.00778C41.4057 3.99167 41.153 3.86889 40.9733 3.66643C40.7824 3.49467 40.6107 3.28475 40.4198 3.113C40.1642 2.85484 39.8443 2.66956 39.4932 2.57627C39.1421 2.48298 38.7724 2.48506 38.4223 2.5823C38.0723 2.67954 37.7545 2.86841 37.5018 3.12943C37.2491 3.39045 37.0706 3.71418 36.9847 4.0672C36.6772 4.99192 36.5037 5.95589 36.4695 6.92979C36.4695 7.76949 36.4695 8.60918 36.4695 9.44888C36.4695 9.88781 36.6221 10.0596 37.0611 10.0405C37.9008 10.0405 38.7405 10.0405 39.5802 10.0405C39.9046 10.0405 40.1527 10.0405 40.1336 10.4985C40.1145 10.9565 40.1336 11.2046 39.5992 11.2046C38.8168 11.2046 38.0153 11.2046 37.2328 11.2046C36.4504 11.2046 36.4313 11.3382 36.4695 11.9489C36.374 13.113 36.3359 14.239 36.3359 15.384Z" fill="#EF1515"/>
<path d="M140.63 18.0941C141.429 16.557 142.143 14.977 142.768 13.3613C142.977 12.846 143.168 12.3308 143.359 11.8155C143.55 11.3002 143.359 10.9377 142.806 10.8804L142.271 10.785C141.985 10.785 141.813 10.6132 141.871 10.327C141.928 10.0407 142.08 10.0216 142.348 10.0407C143.618 10.1509 144.895 10.1509 146.164 10.0407C146.393 10.0407 146.603 10.0407 146.661 10.3079C146.718 10.5751 146.546 10.7468 146.279 10.785C145.891 10.8625 145.529 11.0358 145.226 11.2892C144.923 11.5425 144.688 11.8678 144.542 12.2354C143.092 14.9262 141.832 17.6934 140.535 20.4415C139.619 22.3499 138.76 24.2583 137.844 26.1667C137.348 27.1972 136.699 27.5598 135.802 27.369C135.539 27.34 135.297 27.2109 135.126 27.0084C134.956 26.8059 134.87 26.5455 134.886 26.2812C134.886 25.6514 135.248 25.098 135.859 25.1743C137.119 25.3079 137.5 24.4682 138.035 23.6285C138.628 22.8075 138.984 21.8395 139.065 20.83C139.145 19.8205 138.947 18.8082 138.493 17.9033C137.766 16.1688 137.129 14.398 136.584 12.598C136.26 11.6819 135.84 10.8995 134.676 10.8231C134.371 10.8231 134.275 10.6132 134.313 10.346C134.351 10.0789 134.542 10.0598 134.79 10.0789C136.232 10.1924 137.681 10.1924 139.122 10.0789C139.351 10.0789 139.542 10.0789 139.58 10.3651C139.619 10.6514 139.485 10.7659 139.199 10.8422C138.13 11.1667 138.111 11.1857 138.493 12.2735C139.199 14.1438 139.79 16.1094 140.63 18.0941Z" fill="#EF1515"/>
<path d="M19.3135 13.8572C18.3593 13.8572 17.4051 13.8572 16.47 13.8572C15.8974 13.8572 15.7448 14.0671 15.7639 14.6014C15.7217 15.4058 15.8729 16.2086 16.205 16.9424C16.537 17.6762 17.0402 18.3197 17.6723 18.819C18.364 19.377 19.2398 19.6552 20.1267 19.5987C21.0136 19.5421 21.8471 19.155 22.4623 18.5137C22.6341 18.3419 22.7677 18.1129 23.0539 18.3419C23.3402 18.5709 23.0539 18.819 23.0539 19.0289C22.6251 19.614 22.0762 20.1008 21.4441 20.4566C20.812 20.8125 20.1112 21.0293 19.3885 21.0926C18.6658 21.1558 17.938 21.064 17.2537 20.8233C16.5694 20.5826 15.9443 20.1986 15.4203 19.6969C12.9967 17.1014 13.6837 11.1663 18.073 9.92587C18.7628 9.69211 19.5003 9.63602 20.2175 9.76277C20.9346 9.88953 21.6083 10.195 22.1761 10.6511C22.6626 11.0232 23.0224 11.5364 23.2066 12.1205C23.6265 13.4755 23.3211 13.8763 21.928 13.8763L19.3135 13.8572ZM18.1303 12.9221C18.8364 12.9221 19.5425 12.9221 20.2486 12.7885C20.9547 12.6549 21.1837 12.445 21.012 11.7007C20.9737 11.5211 20.8978 11.3517 20.7892 11.2037C20.6807 11.0557 20.5419 10.9324 20.3822 10.8419C20.0057 10.6585 19.5965 10.552 19.1784 10.5287C18.7603 10.5053 18.3418 10.5656 17.9473 10.706C17.5527 10.8464 17.1902 11.0641 16.8808 11.3463C16.5715 11.6285 16.3215 11.9695 16.1455 12.3495C15.9547 12.7503 16.1455 12.903 16.5654 12.8839C16.9852 12.8648 17.615 12.9221 18.1303 12.9221Z" fill="#EF1515"/>
<path d="M129.791 13.8573H126.871C126.546 13.8573 126.222 13.8573 126.203 14.3153C126.056 15.5086 126.368 16.7133 127.077 17.6844C127.786 18.6556 128.838 19.3206 130.02 19.5443C130.524 19.6352 131.043 19.5952 131.528 19.4281C132.012 19.2611 132.446 18.9725 132.787 18.5901C132.978 18.3802 133.149 18.0367 133.474 18.342C133.798 18.6473 133.474 18.8764 133.34 19.0863C132.786 19.8745 132.007 20.4779 131.105 20.8182C130.203 21.1585 129.22 21.22 128.283 20.9947C127.356 20.8678 126.491 20.4564 125.807 19.8173C125.123 19.1781 124.655 18.3426 124.466 17.426C123.969 15.9073 124.091 14.254 124.806 12.8249C125.521 11.3957 126.77 10.3061 128.283 9.79238C129.155 9.47444 130.11 9.46176 130.99 9.7564C131.871 10.051 132.625 10.6356 133.13 11.4145C133.256 11.6185 133.359 11.8362 133.436 12.0634C133.856 13.342 133.55 13.7618 132.214 13.7618L129.791 13.8573ZM128.569 12.9222C129.294 12.9222 130.039 12.9222 130.764 12.7886C131.489 12.655 131.68 12.4069 131.47 11.6626C131.41 11.4767 131.313 11.3049 131.185 11.1573C131.058 11.0097 130.901 10.8895 130.726 10.8038C130.348 10.6364 129.94 10.5455 129.527 10.5365C129.113 10.5275 128.702 10.6005 128.317 10.7513C127.932 10.9022 127.58 11.1278 127.283 11.4153C126.986 11.7027 126.748 12.0462 126.585 12.426C126.47 12.7695 126.585 12.9031 126.909 12.9031L128.569 12.9222Z" fill="#EF1515"/>
<path d="M45.267 13.8574H42.309C41.9655 13.8574 41.6601 13.8574 41.6601 14.3535C41.5981 15.1935 41.7391 16.036 42.0713 16.8099C42.4035 17.5838 42.917 18.2665 43.5685 18.8001C44.2585 19.3623 45.1353 19.6432 46.0234 19.5866C46.9116 19.53 47.7457 19.14 48.3586 18.4948C48.5304 18.323 48.664 18.094 48.9502 18.323C49.2365 18.552 48.9502 18.8001 48.9502 19.01C48.3989 19.8163 47.6193 20.4395 46.7115 20.7999C45.8037 21.1603 44.809 21.2414 43.8548 21.0329C42.8952 20.8857 42.0076 20.4362 41.3212 19.7498C40.6347 19.0633 40.1852 18.1757 40.038 17.2161C39.7577 16.1162 39.7762 14.9614 40.0915 13.8711C40.4069 12.7807 41.0077 11.7943 41.8319 11.0138C42.7051 10.141 43.8892 9.65063 45.1239 9.65063C46.3585 9.65063 47.5427 10.141 48.4159 11.0138C48.628 11.2528 48.8018 11.5232 48.9311 11.8154C49.5227 13.2467 49.1601 13.7238 47.6334 13.7238L45.267 13.8574ZM44.0647 12.9222C44.7899 12.9222 45.5342 12.9222 46.2594 12.7887C46.9846 12.6551 47.1563 12.4261 46.9655 11.739C46.9166 11.5335 46.8227 11.3414 46.6908 11.1764C46.5588 11.0114 46.3919 10.8777 46.2021 10.7848C45.4337 10.4684 44.5725 10.4626 43.7999 10.7688C43.0274 11.075 42.4039 11.6691 42.0609 12.4261C41.9464 12.7696 42.0609 12.9032 42.4044 12.9032L44.0647 12.9222Z" fill="#EF1515"/>
<path d="M49.9425 15.9185C49.9555 14.8865 50.2219 13.8736 50.7182 12.9688C51.2146 12.064 51.9257 11.295 52.789 10.7296C53.6523 10.1641 54.6413 9.81944 55.669 9.72592C56.6968 9.63241 57.7318 9.79289 58.683 10.1933C58.8347 10.2928 58.9645 10.4222 59.0646 10.5735C59.1647 10.7249 59.2329 10.895 59.265 11.0736C59.2972 11.2522 59.2926 11.4354 59.2516 11.6122C59.2106 11.7889 59.134 11.9555 59.0265 12.1017C58.6448 12.4643 58.3776 12.1017 58.1104 11.9108C57.7615 11.4964 57.3165 11.1737 56.8142 10.9708C56.3119 10.7679 55.7676 10.691 55.2288 10.7467C54.6227 10.8006 54.0418 11.0146 53.5456 11.3667C53.0493 11.7187 52.6555 12.1963 52.4043 12.7505C51.9621 13.6969 51.8274 14.758 52.0191 15.7848C52.2107 16.8116 52.7192 17.7526 53.473 18.4757C53.8439 18.8277 54.2817 19.1016 54.7605 19.2812C55.2392 19.4607 55.7492 19.5422 56.2601 19.5208C56.771 19.4995 57.2723 19.3757 57.7344 19.1568C58.1965 18.9379 58.61 18.6285 58.9501 18.2467C59.1219 18.0559 59.2364 17.7696 59.5608 18.0177C59.8853 18.2658 59.6753 18.4757 59.5608 18.7047C59.0346 19.5415 58.2763 20.2072 57.3783 20.6206C56.4803 21.034 55.4815 21.1773 54.5036 21.033C53.4579 20.9625 52.4642 20.551 51.6748 19.8616C50.8854 19.1722 50.3439 18.2429 50.1333 17.2162C49.9425 16.7391 49.9425 16.2238 49.9425 15.9185Z" fill="#EF1515"/>
<path d="M27.4622 11.262C28.092 10.8231 28.5882 10.4223 29.1416 10.117C29.3814 9.92998 29.6623 9.80298 29.9611 9.74655C30.2598 9.69012 30.5678 9.70589 30.8592 9.79254C31.0229 9.82408 31.177 9.89347 31.3091 9.99519C31.4412 10.0969 31.5476 10.2281 31.6199 10.3783C31.6923 10.5285 31.7285 10.6936 31.7256 10.8603C31.7227 11.027 31.6809 11.1907 31.6035 11.3383C31.5474 11.4931 31.4581 11.6338 31.3419 11.7503C31.2256 11.8669 31.0852 11.9565 30.9305 12.0129C30.7759 12.0693 30.6107 12.0911 30.4467 12.0768C30.2827 12.0624 30.1239 12.0123 29.9813 11.9299L29.4279 11.6437C29.2576 11.5183 29.0573 11.44 28.8471 11.4168C28.6369 11.3935 28.4243 11.4261 28.2307 11.5113C28.0371 11.5965 27.8695 11.7312 27.7446 11.9018C27.6197 12.0725 27.5421 12.2731 27.5195 12.4834C27.4099 12.8872 27.3648 13.3059 27.3859 13.7238C27.3859 15.3269 27.3859 16.93 27.3859 18.533C27.3859 19.7926 27.5767 19.9834 28.8172 20.0788H29.0462C29.3325 20.0788 29.5042 20.0788 29.4851 20.4987C29.4661 20.9185 29.2561 20.8803 28.989 20.8422C27.3641 20.6874 25.7283 20.6874 24.1035 20.8422C24.0517 20.8564 23.9974 20.859 23.9445 20.8497C23.8916 20.8404 23.8414 20.8195 23.7976 20.7885C23.7538 20.7574 23.7174 20.717 23.6911 20.6702C23.6648 20.6234 23.6492 20.5713 23.6454 20.5177C23.6454 20.2124 23.76 20.1361 24.0271 20.0597C25.1722 19.7926 25.2485 19.6971 25.2485 18.533C25.2485 16.6246 25.2485 14.7162 25.2485 12.6933C25.2833 12.4342 25.2401 12.1706 25.1246 11.9361C25.009 11.7016 24.8263 11.5068 24.5996 11.3765C24.1035 11.0903 24.0462 10.7849 24.5996 10.5177C25.1531 10.2506 26.0309 9.86888 26.718 9.4872C27.405 9.10552 27.2905 9.48719 27.2905 9.83071C27.2905 10.1742 27.4622 10.7086 27.4622 11.262Z" fill="#EF1515"/>
<path d="M63.9696 14.8304C63.9696 15.8228 63.9696 16.7388 63.9696 17.8266C64.1223 19.735 65.2864 20.2884 66.9277 19.5251C67.1185 19.5251 67.2902 19.2388 67.4811 19.5251C67.6719 19.8113 67.4811 19.964 67.3093 20.1358C66.7127 20.6543 65.9772 20.9866 65.1937 21.0917C64.4103 21.1969 63.6132 21.0702 62.9009 20.7274C62.5517 20.4887 62.2722 20.1614 62.0911 19.7791C61.91 19.3968 61.8338 18.9732 61.8704 18.5518C61.8704 16.4717 61.8704 14.3915 61.8704 12.3304C61.8704 11.6052 61.8704 11.1281 60.8971 11.2808C60.7063 11.2808 60.4582 11.2808 60.42 11.0136C60.3818 10.7465 60.5154 10.651 60.7635 10.5747C61.2642 10.4334 61.7307 10.1912 62.1343 9.86299C62.538 9.53481 62.8703 9.12758 63.1109 8.6663C63.2254 8.45638 63.3399 8.24645 63.6452 8.32279C63.9506 8.39912 63.9124 8.64721 63.9315 8.87622C63.9315 10.193 63.9315 10.193 65.3246 10.193C65.8971 10.193 66.4887 10.193 67.0612 10.193C67.6338 10.193 67.6528 10.3266 67.6338 10.7274C67.6147 11.1281 67.6338 11.3953 67.0422 11.3762C66.2597 11.3762 65.4582 11.3762 64.6757 11.3762C63.8933 11.3762 63.8551 11.6052 63.8551 12.1778C63.8551 13.132 63.8551 14.0862 63.8551 15.0213L63.9696 14.8304Z" fill="#EF1515"/>
<path d="M6.16378 16.51C6.16378 17.0062 6.16378 17.5024 6.16378 18.0177C6.16378 19.5062 6.58363 19.9261 8.07218 20.0596C8.35844 20.0596 8.77828 19.9451 8.7592 20.4604C8.74012 20.9757 8.30119 20.8421 7.97676 20.823C6.07089 20.6839 4.15742 20.6839 2.25156 20.823C1.9653 20.823 1.62179 20.9375 1.56454 20.5177C1.50729 20.0978 1.90805 20.0978 2.19431 20.0406C3.41568 19.8497 3.68286 19.6398 3.77828 18.3993C3.8737 17.1589 3.77828 15.8802 3.77828 14.5825C3.77828 14.1436 3.77828 14.01 4.33171 14.0291C5.99202 14.0291 5.99202 14.0291 5.99202 15.7657L6.16378 16.51Z" fill="#EF1515"/>
<path d="M86.2021 29.0862C86.2021 29.6396 86.2021 30.193 86.2021 30.7465C86.2021 30.9373 86.3548 31.2236 86.0494 31.2618C85.7441 31.2999 85.3815 31.4526 85.2479 31.1663C85.1143 30.8801 84.8662 31.0137 84.6563 31.1663C84.4269 31.3385 84.1536 31.4426 83.8678 31.4667C83.5819 31.4907 83.2951 31.4337 83.0401 31.3023C82.7852 31.1708 82.5724 30.9702 82.4262 30.7234C82.28 30.4766 82.2063 30.1936 82.2136 29.9068C82.2136 29.0289 82.2136 28.132 82.2136 27.235C82.2136 26.7198 82.5762 26.9106 82.8242 26.8915C83.0723 26.8724 83.4158 26.7961 83.3968 27.2923C83.3777 27.7885 83.3968 28.7617 83.3968 29.506C83.3968 30.2503 83.5685 30.4793 84.1983 30.4602C84.8281 30.4411 85.0571 30.0404 85.0571 29.4488C85.0571 28.8572 85.0571 28.0747 85.0571 27.4068C85.0571 26.7388 85.3052 26.8915 85.6678 26.8915C86.0304 26.8915 86.2975 26.8915 86.2594 27.4259C86.2212 27.9602 86.2021 28.5137 86.2021 29.0862Z" fill="white"/>
<path d="M120.668 29.3916C120.382 29.3761 120.095 29.3761 119.809 29.3916C119.599 29.3916 119.275 29.239 119.218 29.5634C119.214 29.6965 119.247 29.8281 119.315 29.9429C119.382 30.0577 119.481 30.1511 119.599 30.2122C119.862 30.3672 120.156 30.4613 120.46 30.4877C120.764 30.5142 121.07 30.4722 121.355 30.3649C121.641 30.3649 121.775 30.3649 121.832 30.6703C121.89 30.9756 121.832 31.1283 121.584 31.2046C121.101 31.3967 120.577 31.4608 120.062 31.3906C119.547 31.3204 119.059 31.1183 118.645 30.8038C118.306 30.4334 118.087 29.9694 118.015 29.4725C117.944 28.9755 118.024 28.4685 118.244 28.0176C118.441 27.5405 118.807 27.1534 119.272 26.9312C119.738 26.709 120.269 26.6677 120.764 26.8153C121.215 26.9706 121.597 27.2789 121.845 27.6868C122.092 28.0946 122.189 28.5763 122.119 29.0481C122.119 29.3726 121.947 29.4298 121.68 29.4107L120.668 29.3916ZM120.077 28.6092C120.363 28.3993 120.897 28.8573 120.954 28.3038C121.012 27.7504 120.611 27.5405 120.134 27.5405C119.657 27.5405 119.199 27.8458 119.237 28.342C119.275 28.8382 119.809 28.4374 120.077 28.6283V28.6092Z" fill="white"/>
<path d="M107.5 29.3916H106.47C105.878 29.3916 105.993 29.6969 106.203 29.9641C106.434 30.2285 106.742 30.4146 107.084 30.4966C107.426 30.5787 107.785 30.5526 108.111 30.4221C108.397 30.4221 108.645 30.2122 108.722 30.7084C108.798 31.2046 108.569 31.2236 108.283 31.2809C107.808 31.4466 107.298 31.4827 106.805 31.3854C106.312 31.2881 105.854 31.061 105.477 30.7275C105.174 30.3759 104.976 29.945 104.909 29.4853C104.841 29.0256 104.906 28.5562 105.096 28.132C105.268 27.6587 105.601 27.2612 106.038 27.0098C106.474 26.7584 106.986 26.6693 107.481 26.758C107.939 26.8455 108.349 27.0976 108.634 27.4668C108.919 27.836 109.059 28.2966 109.027 28.7618C109.027 29.258 108.932 29.487 108.397 29.4107C108.099 29.3832 107.799 29.3768 107.5 29.3916ZM106.928 28.6091C107.214 28.361 107.806 28.9145 107.844 28.2656C107.845 28.1593 107.823 28.054 107.78 27.9569C107.736 27.8598 107.673 27.773 107.593 27.7025C107.514 27.632 107.42 27.5793 107.318 27.5481C107.217 27.5168 107.11 27.5077 107.004 27.5214C106.892 27.5108 106.778 27.5236 106.671 27.5589C106.564 27.5942 106.465 27.6513 106.381 27.7265C106.297 27.8017 106.229 27.8935 106.182 27.9961C106.135 28.0988 106.109 28.21 106.107 28.3229C106.126 28.8572 106.661 28.4183 106.928 28.6282V28.6091Z" fill="white"/>
<path d="M114.828 29.5061C114.828 29.0863 114.828 28.6664 114.828 28.2466C114.828 27.8267 114.828 27.7695 114.504 27.674C114.429 27.6471 114.364 27.6006 114.313 27.5394C114.263 27.4782 114.231 27.4047 114.219 27.3265C114.207 27.2483 114.217 27.1684 114.247 27.0952C114.277 27.022 114.326 26.9582 114.389 26.9107C115 26.8153 114.847 26.3763 114.923 26.0328C115.002 25.6053 115.248 25.2266 115.605 24.9798C115.963 24.7329 116.404 24.638 116.832 24.716C117.099 24.716 117.404 24.716 117.347 25.2122C117.29 25.7084 117.214 25.6893 116.832 25.6511C116.45 25.613 116.164 25.8992 116.088 26.3191C116.011 26.7389 116.088 26.8916 116.488 26.8534C116.889 26.8153 117.042 26.8534 117.042 27.2542C117.042 27.655 116.87 27.7504 116.526 27.6931C116.183 27.6359 116.068 27.8649 116.068 28.2084C116.068 29.0481 116.068 29.8878 116.068 30.7275C116.068 31.2428 115.916 31.3191 115.458 31.3191C115 31.3191 114.809 31.1664 114.866 30.6893C114.923 30.2122 114.828 29.9069 114.828 29.5061Z" fill="white"/>
<path d="M130.21 31.3766C130.033 31.4041 129.853 31.3905 129.682 31.3369C129.511 31.2832 129.355 31.191 129.226 31.0673C129.097 30.9436 128.998 30.7919 128.937 30.6238C128.876 30.4557 128.854 30.2758 128.874 30.098C128.874 29.5446 128.874 28.9911 128.874 28.4377C128.874 27.8843 129.027 27.7316 128.416 27.6362C128.13 27.6362 128.092 26.9873 128.416 26.8728C128.741 26.7583 128.855 26.6438 128.855 26.3003C128.855 25.9568 129.428 25.8232 129.752 25.7659C130.076 25.7087 129.981 26.1285 129.981 26.3384C129.981 26.5484 129.981 26.8728 130.458 26.8346C130.935 26.7965 131.031 26.8346 131.031 27.2354C131.031 27.6362 130.744 27.7125 130.42 27.6934C130.096 27.6743 129.962 27.7888 129.981 28.1323C130 28.4759 129.981 29.2392 129.981 29.7927C129.981 30.3461 130.134 30.4415 130.515 30.4033C130.897 30.3652 130.916 30.6133 130.954 30.9186C130.992 31.224 130.783 31.3575 130.496 31.3766H130.21Z" fill="white"/>
<path d="M92.8438 29.1053C92.8438 28.7809 92.8438 28.4756 92.8438 28.1511C92.8438 27.8267 92.8438 27.6741 92.4812 27.6931C92.1186 27.7122 92.1567 27.5214 92.1567 27.2924C92.1567 27.0634 92.1567 26.8153 92.5193 26.8344C92.8819 26.8534 92.8628 26.6435 92.8438 26.4336C92.8247 26.2237 93.0346 25.9756 93.3209 25.8611C93.6071 25.7466 94.0461 25.6893 93.9506 26.2809C93.8552 26.8725 94.0651 26.9107 94.5041 26.8344C94.943 26.758 95.0002 26.8344 95.0193 27.216C95.0384 27.5977 94.8476 27.7313 94.5041 27.674C94.1606 27.6168 93.9125 27.8076 93.9506 28.2466C93.9888 28.6855 93.9506 29.1435 93.9506 29.5824C93.9506 30.0214 93.9506 30.4412 94.6376 30.384C95.3247 30.3267 94.9239 30.6511 94.943 30.842C94.9621 31.0328 94.943 31.2618 94.5995 31.3191C94.3937 31.3959 94.172 31.4201 93.9545 31.3893C93.737 31.3586 93.5306 31.2739 93.3542 31.143C93.1778 31.0121 93.037 30.8392 92.9445 30.64C92.852 30.4407 92.8108 30.2215 92.8247 30.0023C92.8247 29.7351 92.8438 29.4107 92.8438 29.1053Z" fill="white"/>
<path d="M89.7333 26.739C90.0128 26.7309 90.2914 26.7762 90.5539 26.8726C90.8974 26.8726 90.8402 27.178 90.7638 27.4261C90.6875 27.6741 90.6302 27.9032 90.3058 27.6932C90.205 27.6737 90.1013 27.6737 90.0005 27.6932C89.6569 27.6932 89.2562 27.5596 89.1417 27.9986C89.0272 28.4375 89.447 28.4757 89.7142 28.6093C89.9814 28.7429 90.1531 28.781 90.3631 28.8955C90.6111 29.0231 90.8106 29.2283 90.9312 29.4798C91.0518 29.7313 91.0869 30.0154 91.031 30.2886C90.9983 30.5402 90.8893 30.7756 90.7187 30.9633C90.5481 31.151 90.3241 31.2819 90.0768 31.3383C89.4909 31.5079 88.8688 31.5079 88.2829 31.3383C87.9394 31.3383 87.863 31.0711 87.9585 30.7085C88.0539 30.3459 88.2638 30.3841 88.531 30.4795C88.6274 30.5264 88.7303 30.5586 88.8363 30.5749C89.218 30.5749 89.7142 30.7848 89.886 30.3077C90.0577 29.8306 89.5424 29.678 89.1989 29.5444C88.2256 29.1245 87.8821 28.6665 88.0348 27.9413C88.1875 27.2161 88.7791 26.739 89.7333 26.739Z" fill="white"/>
<path d="M80.3822 27.6931C80.4265 28.4971 80.3817 29.3036 80.2486 30.0977C80.1594 30.358 80.0184 30.5975 79.8343 30.8019C79.6501 31.0063 79.4266 31.1713 79.177 31.2872C78.9275 31.4031 78.6571 31.4673 78.3822 31.4761C78.1072 31.4848 77.8333 31.4379 77.5769 31.3382C77.2334 31.1855 77.4242 30.9374 77.4242 30.7466C77.4242 30.5557 77.5196 30.384 77.8059 30.384C79.0654 30.384 79.199 30.1741 79.2181 28.9145C79.2372 27.655 79.2181 26.8153 79.2181 25.7657C79.2181 25.2695 79.3517 25.155 79.8288 25.155C80.3059 25.155 80.4204 25.3649 80.4013 25.8038C80.3822 26.2428 80.3822 26.968 80.3822 27.6931Z" fill="white"/>
<path d="M126.279 27.6933C125.998 27.6165 125.699 27.6325 125.427 27.7391C125.156 27.8457 124.926 28.0371 124.771 28.2849C124.62 28.5176 124.539 28.7895 124.539 29.0674C124.539 29.3453 124.62 29.6171 124.771 29.8498C124.919 30.1031 125.15 30.297 125.426 30.398C125.701 30.499 126.003 30.5009 126.279 30.4033C126.623 30.3078 126.813 30.4033 126.89 30.7468C126.966 31.0903 126.89 31.2048 126.508 31.3002C126.03 31.4584 125.517 31.4722 125.031 31.3398C124.546 31.2074 124.11 30.9347 123.779 30.5559C123.501 30.167 123.342 29.7054 123.321 29.2276C123.301 28.7497 123.42 28.2763 123.665 27.8651C123.926 27.427 124.321 27.0836 124.791 26.8846C125.261 26.6856 125.782 26.6413 126.279 26.7582C126.527 26.7582 127.004 26.7582 126.909 27.2353C126.813 27.7124 126.775 27.9796 126.279 27.6933Z" fill="white"/>
<path d="M111.623 27.3688L112.329 26.8535C112.539 26.7199 112.844 26.6436 112.997 26.8535C113.149 27.0634 112.997 27.3879 113.092 27.6741C113.188 27.9604 112.806 27.865 112.634 27.9031C112.386 27.9407 112.161 28.0688 112.003 28.2627C111.844 28.4566 111.763 28.7025 111.775 28.9528C111.775 29.6016 111.775 30.2696 111.775 30.8612C111.775 31.4528 111.47 31.3001 111.165 31.3001C110.859 31.3001 110.554 31.3001 110.573 30.8612C110.573 29.7543 110.573 28.6474 110.573 27.5405C110.573 27.3115 110.344 26.9108 110.802 26.8535C111.26 26.7963 111.642 26.6627 111.623 27.3688Z" fill="white"/>
</svg>
