<?xml version="1.0" encoding="UTF-8"?>
<svg xmlns="http://www.w3.org/2000/svg" xmlns:xlink="http://www.w3.org/1999/xlink" width="60pt" height="60pt" viewBox="0 0 60 60" version="1.1">
<g id="surface1">
<path style="fill-rule:nonzero;fill:rgb(100%,29.411765%,0%);fill-opacity:1;stroke-width:1;stroke-linecap:butt;stroke-linejoin:miter;stroke:rgb(100%,29.411765%,0%);stroke-opacity:1;stroke-miterlimit:4;" d="M 573.75 267.75 L 459 344.25 C 459 321.021094 448.441406 300.501562 432.105469 286.436719 C 470.992969 263.008594 497.25 220.814062 497.25 172.125 C 497.25 98.175 437.325 38.25 363.375 38.25 C 289.425 38.25 229.5 98.175 229.5 172.125 C 229.5 209.617969 244.999219 243.445312 269.861719 267.75 L 199.736719 267.75 C 218.025 247.429687 229.5 220.774219 229.5 191.25 C 229.5 127.858594 178.141406 76.5 114.75 76.5 C 51.358594 76.5 0 127.858594 0 191.25 C 0 225.834375 15.61875 256.474219 39.803906 277.511719 C 16.216406 290.540625 0 315.363281 0 344.25 L 0 497.25 C 0 539.484375 34.265625 573.75 76.5 573.75 L 382.5 573.75 C 424.734375 573.75 459 539.484375 459 497.25 L 573.75 573.75 C 594.867188 573.75 612 556.617188 612 535.5 L 612 306 C 612 284.882812 594.867188 267.75 573.75 267.75 Z M 114.75 267.75 C 72.515625 267.75 38.25 233.484375 38.25 191.25 C 38.25 149.015625 72.515625 114.75 114.75 114.75 C 156.984375 114.75 191.25 149.015625 191.25 191.25 C 191.25 233.484375 156.984375 267.75 114.75 267.75 Z M 363.375 267.949219 C 310.422656 267.949219 267.550781 225.0375 267.550781 172.125 C 267.550781 119.172656 310.4625 76.300781 363.375 76.300781 C 416.2875 76.300781 459.199219 119.172656 459.199219 172.125 C 459.199219 225.077344 416.327344 267.949219 363.375 267.949219 Z M 363.375 267.949219 " transform="matrix(0.0980392,0,0,0.0980392,0,0)"/>
</g>
</svg>
