<svg width="72" height="24" viewBox="0 0 72 24" fill="none" xmlns="http://www.w3.org/2000/svg">
<path d="M30.8385 23.5H25L28.6615 1H34.5L30.8385 23.5Z" fill="#00579F"/>
<path d="M52 1.47917C50.8136 0.989583 49.0339 0.5 46.7599 0.5C41.0254 0.5 36.8729 3.63333 36.8729 8.03958C36.8729 11.2708 39.7401 13.1313 42.0141 14.2083C44.2881 15.2854 45.0791 16.0688 45.0791 17.0479C45.0791 18.6146 43.2994 19.3 41.5198 19.3C39.1469 19.3 37.9605 18.9083 36.0819 18.125L35.291 17.7333L34.5 22.825C35.8842 23.4125 38.3559 24 41.0254 24C47.1554 24 51.1102 20.9646 51.209 16.2646C51.209 13.7188 49.6271 11.6625 46.2655 10.0958C44.1893 9.01875 43.0028 8.33333 43.0028 7.25625C43.0028 6.27708 44.0904 5.29792 46.3644 5.29792C48.2429 5.29792 49.6271 5.68958 50.7147 6.17917L51.209 6.375L52 1.47917Z" fill="#00579F"/>
<path d="M59.5704 15.5474C60.0634 14.2866 61.9366 9.24354 61.9366 9.24354C61.9366 9.24354 62.4296 7.88578 62.7254 7.10992L63.1197 9.04957C63.1197 9.04957 64.2042 14.4806 64.5 15.5474C63.5141 15.5474 60.7535 15.5474 59.5704 15.5474ZM66.7676 1H62.2324C60.8521 1 59.7676 1.38793 59.1761 2.84267L50.5 23.5H56.7113C56.7113 23.5 57.6972 20.6875 57.8944 20.1056C58.5845 20.1056 64.5 20.1056 65.3873 20.1056C65.5845 20.8815 66.0775 23.5 66.0775 23.5H71.5L66.7676 1Z" fill="#00579F"/>
<path d="M20.3894 1L14.6731 16.3541L14.0817 13.2639C12.9976 9.69099 9.74519 5.82833 6 3.897L11.2236 23.5H17.4327L26.5 1H20.3894Z" fill="#00579F"/>
<path d="M9.33333 1H0.0972222L0 1.49213C7.19444 3.3622 11.9583 7.98819 14 13.5L11.9583 2.9685C11.5694 1.49213 10.5972 1.09843 9.33333 1Z" fill="#FAA61A"/>
</svg>
